%TF.GenerationSoftware,KiCad,Pcbnew,(6.0.5)*%
%TF.CreationDate,2022-11-21T22:14:33-06:00*%
%TF.ProjectId,A10102,41313031-3032-42e6-9b69-6361645f7063,rev?*%
%TF.SameCoordinates,Original*%
%TF.FileFunction,Legend,Top*%
%TF.FilePolarity,Positive*%
%FSLAX46Y46*%
G04 Gerber Fmt 4.6, Leading zero omitted, Abs format (unit mm)*
G04 Created by KiCad (PCBNEW (6.0.5)) date 2022-11-21 22:14:33*
%MOMM*%
%LPD*%
G01*
G04 APERTURE LIST*
%ADD10C,0.150000*%
%ADD11C,0.100000*%
%ADD12C,0.120000*%
G04 APERTURE END LIST*
D10*
%TO.C,C3*%
X142747142Y-89086666D02*
X142794761Y-89134285D01*
X142842380Y-89277142D01*
X142842380Y-89372380D01*
X142794761Y-89515238D01*
X142699523Y-89610476D01*
X142604285Y-89658095D01*
X142413809Y-89705714D01*
X142270952Y-89705714D01*
X142080476Y-89658095D01*
X141985238Y-89610476D01*
X141890000Y-89515238D01*
X141842380Y-89372380D01*
X141842380Y-89277142D01*
X141890000Y-89134285D01*
X141937619Y-89086666D01*
X141842380Y-88753333D02*
X141842380Y-88134285D01*
X142223333Y-88467619D01*
X142223333Y-88324761D01*
X142270952Y-88229523D01*
X142318571Y-88181904D01*
X142413809Y-88134285D01*
X142651904Y-88134285D01*
X142747142Y-88181904D01*
X142794761Y-88229523D01*
X142842380Y-88324761D01*
X142842380Y-88610476D01*
X142794761Y-88705714D01*
X142747142Y-88753333D01*
%TO.C,H5*%
X162058095Y-47572380D02*
X162058095Y-46572380D01*
X162058095Y-47048571D02*
X162629523Y-47048571D01*
X162629523Y-47572380D02*
X162629523Y-46572380D01*
X163581904Y-46572380D02*
X163105714Y-46572380D01*
X163058095Y-47048571D01*
X163105714Y-47000952D01*
X163200952Y-46953333D01*
X163439047Y-46953333D01*
X163534285Y-47000952D01*
X163581904Y-47048571D01*
X163629523Y-47143809D01*
X163629523Y-47381904D01*
X163581904Y-47477142D01*
X163534285Y-47524761D01*
X163439047Y-47572380D01*
X163200952Y-47572380D01*
X163105714Y-47524761D01*
X163058095Y-47477142D01*
%TO.C,SW3*%
X169974761Y-73253333D02*
X170022380Y-73110476D01*
X170022380Y-72872380D01*
X169974761Y-72777142D01*
X169927142Y-72729523D01*
X169831904Y-72681904D01*
X169736666Y-72681904D01*
X169641428Y-72729523D01*
X169593809Y-72777142D01*
X169546190Y-72872380D01*
X169498571Y-73062857D01*
X169450952Y-73158095D01*
X169403333Y-73205714D01*
X169308095Y-73253333D01*
X169212857Y-73253333D01*
X169117619Y-73205714D01*
X169070000Y-73158095D01*
X169022380Y-73062857D01*
X169022380Y-72824761D01*
X169070000Y-72681904D01*
X169022380Y-72348571D02*
X170022380Y-72110476D01*
X169308095Y-71920000D01*
X170022380Y-71729523D01*
X169022380Y-71491428D01*
X169022380Y-71205714D02*
X169022380Y-70586666D01*
X169403333Y-70920000D01*
X169403333Y-70777142D01*
X169450952Y-70681904D01*
X169498571Y-70634285D01*
X169593809Y-70586666D01*
X169831904Y-70586666D01*
X169927142Y-70634285D01*
X169974761Y-70681904D01*
X170022380Y-70777142D01*
X170022380Y-71062857D01*
X169974761Y-71158095D01*
X169927142Y-71205714D01*
%TO.C,R1*%
X107842380Y-103086666D02*
X107366190Y-103420000D01*
X107842380Y-103658095D02*
X106842380Y-103658095D01*
X106842380Y-103277142D01*
X106890000Y-103181904D01*
X106937619Y-103134285D01*
X107032857Y-103086666D01*
X107175714Y-103086666D01*
X107270952Y-103134285D01*
X107318571Y-103181904D01*
X107366190Y-103277142D01*
X107366190Y-103658095D01*
X107842380Y-102134285D02*
X107842380Y-102705714D01*
X107842380Y-102420000D02*
X106842380Y-102420000D01*
X106985238Y-102515238D01*
X107080476Y-102610476D01*
X107128095Y-102705714D01*
%TO.C,H7*%
X87058095Y-78572380D02*
X87058095Y-77572380D01*
X87058095Y-78048571D02*
X87629523Y-78048571D01*
X87629523Y-78572380D02*
X87629523Y-77572380D01*
X88010476Y-77572380D02*
X88677142Y-77572380D01*
X88248571Y-78572380D01*
%TO.C,U2*%
X173922380Y-99931904D02*
X174731904Y-99931904D01*
X174827142Y-99884285D01*
X174874761Y-99836666D01*
X174922380Y-99741428D01*
X174922380Y-99550952D01*
X174874761Y-99455714D01*
X174827142Y-99408095D01*
X174731904Y-99360476D01*
X173922380Y-99360476D01*
X174017619Y-98931904D02*
X173970000Y-98884285D01*
X173922380Y-98789047D01*
X173922380Y-98550952D01*
X173970000Y-98455714D01*
X174017619Y-98408095D01*
X174112857Y-98360476D01*
X174208095Y-98360476D01*
X174350952Y-98408095D01*
X174922380Y-98979523D01*
X174922380Y-98360476D01*
%TO.C,C6*%
X133747142Y-89086666D02*
X133794761Y-89134285D01*
X133842380Y-89277142D01*
X133842380Y-89372380D01*
X133794761Y-89515238D01*
X133699523Y-89610476D01*
X133604285Y-89658095D01*
X133413809Y-89705714D01*
X133270952Y-89705714D01*
X133080476Y-89658095D01*
X132985238Y-89610476D01*
X132890000Y-89515238D01*
X132842380Y-89372380D01*
X132842380Y-89277142D01*
X132890000Y-89134285D01*
X132937619Y-89086666D01*
X132842380Y-88229523D02*
X132842380Y-88420000D01*
X132890000Y-88515238D01*
X132937619Y-88562857D01*
X133080476Y-88658095D01*
X133270952Y-88705714D01*
X133651904Y-88705714D01*
X133747142Y-88658095D01*
X133794761Y-88610476D01*
X133842380Y-88515238D01*
X133842380Y-88324761D01*
X133794761Y-88229523D01*
X133747142Y-88181904D01*
X133651904Y-88134285D01*
X133413809Y-88134285D01*
X133318571Y-88181904D01*
X133270952Y-88229523D01*
X133223333Y-88324761D01*
X133223333Y-88515238D01*
X133270952Y-88610476D01*
X133318571Y-88658095D01*
X133413809Y-88705714D01*
%TO.C,J5*%
X111952380Y-120253333D02*
X112666666Y-120253333D01*
X112809523Y-120300952D01*
X112904761Y-120396190D01*
X112952380Y-120539047D01*
X112952380Y-120634285D01*
X111952380Y-119300952D02*
X111952380Y-119777142D01*
X112428571Y-119824761D01*
X112380952Y-119777142D01*
X112333333Y-119681904D01*
X112333333Y-119443809D01*
X112380952Y-119348571D01*
X112428571Y-119300952D01*
X112523809Y-119253333D01*
X112761904Y-119253333D01*
X112857142Y-119300952D01*
X112904761Y-119348571D01*
X112952380Y-119443809D01*
X112952380Y-119681904D01*
X112904761Y-119777142D01*
X112857142Y-119824761D01*
%TO.C,R4*%
X133952380Y-117086666D02*
X133476190Y-117420000D01*
X133952380Y-117658095D02*
X132952380Y-117658095D01*
X132952380Y-117277142D01*
X133000000Y-117181904D01*
X133047619Y-117134285D01*
X133142857Y-117086666D01*
X133285714Y-117086666D01*
X133380952Y-117134285D01*
X133428571Y-117181904D01*
X133476190Y-117277142D01*
X133476190Y-117658095D01*
X133285714Y-116229523D02*
X133952380Y-116229523D01*
X132904761Y-116467619D02*
X133619047Y-116705714D01*
X133619047Y-116086666D01*
%TO.C,U1*%
X114442380Y-99696904D02*
X115251904Y-99696904D01*
X115347142Y-99649285D01*
X115394761Y-99601666D01*
X115442380Y-99506428D01*
X115442380Y-99315952D01*
X115394761Y-99220714D01*
X115347142Y-99173095D01*
X115251904Y-99125476D01*
X114442380Y-99125476D01*
X115442380Y-98125476D02*
X115442380Y-98696904D01*
X115442380Y-98411190D02*
X114442380Y-98411190D01*
X114585238Y-98506428D01*
X114680476Y-98601666D01*
X114728095Y-98696904D01*
%TO.C,C1*%
X143357142Y-117086666D02*
X143404761Y-117134285D01*
X143452380Y-117277142D01*
X143452380Y-117372380D01*
X143404761Y-117515238D01*
X143309523Y-117610476D01*
X143214285Y-117658095D01*
X143023809Y-117705714D01*
X142880952Y-117705714D01*
X142690476Y-117658095D01*
X142595238Y-117610476D01*
X142500000Y-117515238D01*
X142452380Y-117372380D01*
X142452380Y-117277142D01*
X142500000Y-117134285D01*
X142547619Y-117086666D01*
X143452380Y-116134285D02*
X143452380Y-116705714D01*
X143452380Y-116420000D02*
X142452380Y-116420000D01*
X142595238Y-116515238D01*
X142690476Y-116610476D01*
X142738095Y-116705714D01*
%TO.C,C5*%
X136747142Y-89086666D02*
X136794761Y-89134285D01*
X136842380Y-89277142D01*
X136842380Y-89372380D01*
X136794761Y-89515238D01*
X136699523Y-89610476D01*
X136604285Y-89658095D01*
X136413809Y-89705714D01*
X136270952Y-89705714D01*
X136080476Y-89658095D01*
X135985238Y-89610476D01*
X135890000Y-89515238D01*
X135842380Y-89372380D01*
X135842380Y-89277142D01*
X135890000Y-89134285D01*
X135937619Y-89086666D01*
X135842380Y-88181904D02*
X135842380Y-88658095D01*
X136318571Y-88705714D01*
X136270952Y-88658095D01*
X136223333Y-88562857D01*
X136223333Y-88324761D01*
X136270952Y-88229523D01*
X136318571Y-88181904D01*
X136413809Y-88134285D01*
X136651904Y-88134285D01*
X136747142Y-88181904D01*
X136794761Y-88229523D01*
X136842380Y-88324761D01*
X136842380Y-88562857D01*
X136794761Y-88658095D01*
X136747142Y-88705714D01*
%TO.C,SW2*%
X185924761Y-47803333D02*
X185972380Y-47660476D01*
X185972380Y-47422380D01*
X185924761Y-47327142D01*
X185877142Y-47279523D01*
X185781904Y-47231904D01*
X185686666Y-47231904D01*
X185591428Y-47279523D01*
X185543809Y-47327142D01*
X185496190Y-47422380D01*
X185448571Y-47612857D01*
X185400952Y-47708095D01*
X185353333Y-47755714D01*
X185258095Y-47803333D01*
X185162857Y-47803333D01*
X185067619Y-47755714D01*
X185020000Y-47708095D01*
X184972380Y-47612857D01*
X184972380Y-47374761D01*
X185020000Y-47231904D01*
X184972380Y-46898571D02*
X185972380Y-46660476D01*
X185258095Y-46470000D01*
X185972380Y-46279523D01*
X184972380Y-46041428D01*
X185067619Y-45708095D02*
X185020000Y-45660476D01*
X184972380Y-45565238D01*
X184972380Y-45327142D01*
X185020000Y-45231904D01*
X185067619Y-45184285D01*
X185162857Y-45136666D01*
X185258095Y-45136666D01*
X185400952Y-45184285D01*
X185972380Y-45755714D01*
X185972380Y-45136666D01*
%TO.C,SW1*%
X95974761Y-110253333D02*
X96022380Y-110110476D01*
X96022380Y-109872380D01*
X95974761Y-109777142D01*
X95927142Y-109729523D01*
X95831904Y-109681904D01*
X95736666Y-109681904D01*
X95641428Y-109729523D01*
X95593809Y-109777142D01*
X95546190Y-109872380D01*
X95498571Y-110062857D01*
X95450952Y-110158095D01*
X95403333Y-110205714D01*
X95308095Y-110253333D01*
X95212857Y-110253333D01*
X95117619Y-110205714D01*
X95070000Y-110158095D01*
X95022380Y-110062857D01*
X95022380Y-109824761D01*
X95070000Y-109681904D01*
X95022380Y-109348571D02*
X96022380Y-109110476D01*
X95308095Y-108920000D01*
X96022380Y-108729523D01*
X95022380Y-108491428D01*
X96022380Y-107586666D02*
X96022380Y-108158095D01*
X96022380Y-107872380D02*
X95022380Y-107872380D01*
X95165238Y-107967619D01*
X95260476Y-108062857D01*
X95308095Y-108158095D01*
%TO.C,J3*%
X164986666Y-110812380D02*
X164986666Y-111526666D01*
X164939047Y-111669523D01*
X164843809Y-111764761D01*
X164700952Y-111812380D01*
X164605714Y-111812380D01*
X165367619Y-110812380D02*
X165986666Y-110812380D01*
X165653333Y-111193333D01*
X165796190Y-111193333D01*
X165891428Y-111240952D01*
X165939047Y-111288571D01*
X165986666Y-111383809D01*
X165986666Y-111621904D01*
X165939047Y-111717142D01*
X165891428Y-111764761D01*
X165796190Y-111812380D01*
X165510476Y-111812380D01*
X165415238Y-111764761D01*
X165367619Y-111717142D01*
%TO.C,J1*%
X174986666Y-110812380D02*
X174986666Y-111526666D01*
X174939047Y-111669523D01*
X174843809Y-111764761D01*
X174700952Y-111812380D01*
X174605714Y-111812380D01*
X175986666Y-111812380D02*
X175415238Y-111812380D01*
X175700952Y-111812380D02*
X175700952Y-110812380D01*
X175605714Y-110955238D01*
X175510476Y-111050476D01*
X175415238Y-111098095D01*
%TO.C,C2*%
X138357142Y-117086666D02*
X138404761Y-117134285D01*
X138452380Y-117277142D01*
X138452380Y-117372380D01*
X138404761Y-117515238D01*
X138309523Y-117610476D01*
X138214285Y-117658095D01*
X138023809Y-117705714D01*
X137880952Y-117705714D01*
X137690476Y-117658095D01*
X137595238Y-117610476D01*
X137500000Y-117515238D01*
X137452380Y-117372380D01*
X137452380Y-117277142D01*
X137500000Y-117134285D01*
X137547619Y-117086666D01*
X137547619Y-116705714D02*
X137500000Y-116658095D01*
X137452380Y-116562857D01*
X137452380Y-116324761D01*
X137500000Y-116229523D01*
X137547619Y-116181904D01*
X137642857Y-116134285D01*
X137738095Y-116134285D01*
X137880952Y-116181904D01*
X138452380Y-116753333D01*
X138452380Y-116134285D01*
%TO.C,BZ1*%
X115239047Y-110348571D02*
X115381904Y-110396190D01*
X115429523Y-110443809D01*
X115477142Y-110539047D01*
X115477142Y-110681904D01*
X115429523Y-110777142D01*
X115381904Y-110824761D01*
X115286666Y-110872380D01*
X114905714Y-110872380D01*
X114905714Y-109872380D01*
X115239047Y-109872380D01*
X115334285Y-109920000D01*
X115381904Y-109967619D01*
X115429523Y-110062857D01*
X115429523Y-110158095D01*
X115381904Y-110253333D01*
X115334285Y-110300952D01*
X115239047Y-110348571D01*
X114905714Y-110348571D01*
X115810476Y-109872380D02*
X116477142Y-109872380D01*
X115810476Y-110872380D01*
X116477142Y-110872380D01*
X117381904Y-110872380D02*
X116810476Y-110872380D01*
X117096190Y-110872380D02*
X117096190Y-109872380D01*
X117000952Y-110015238D01*
X116905714Y-110110476D01*
X116810476Y-110158095D01*
X119939047Y-113691428D02*
X120700952Y-113691428D01*
X120320000Y-114072380D02*
X120320000Y-113310476D01*
%TO.C,SW4*%
X179974761Y-73253333D02*
X180022380Y-73110476D01*
X180022380Y-72872380D01*
X179974761Y-72777142D01*
X179927142Y-72729523D01*
X179831904Y-72681904D01*
X179736666Y-72681904D01*
X179641428Y-72729523D01*
X179593809Y-72777142D01*
X179546190Y-72872380D01*
X179498571Y-73062857D01*
X179450952Y-73158095D01*
X179403333Y-73205714D01*
X179308095Y-73253333D01*
X179212857Y-73253333D01*
X179117619Y-73205714D01*
X179070000Y-73158095D01*
X179022380Y-73062857D01*
X179022380Y-72824761D01*
X179070000Y-72681904D01*
X179022380Y-72348571D02*
X180022380Y-72110476D01*
X179308095Y-71920000D01*
X180022380Y-71729523D01*
X179022380Y-71491428D01*
X179355714Y-70681904D02*
X180022380Y-70681904D01*
X178974761Y-70920000D02*
X179689047Y-71158095D01*
X179689047Y-70539047D01*
%TO.C,H8*%
X162058095Y-78572380D02*
X162058095Y-77572380D01*
X162058095Y-78048571D02*
X162629523Y-78048571D01*
X162629523Y-78572380D02*
X162629523Y-77572380D01*
X163248571Y-78000952D02*
X163153333Y-77953333D01*
X163105714Y-77905714D01*
X163058095Y-77810476D01*
X163058095Y-77762857D01*
X163105714Y-77667619D01*
X163153333Y-77620000D01*
X163248571Y-77572380D01*
X163439047Y-77572380D01*
X163534285Y-77620000D01*
X163581904Y-77667619D01*
X163629523Y-77762857D01*
X163629523Y-77810476D01*
X163581904Y-77905714D01*
X163534285Y-77953333D01*
X163439047Y-78000952D01*
X163248571Y-78000952D01*
X163153333Y-78048571D01*
X163105714Y-78096190D01*
X163058095Y-78191428D01*
X163058095Y-78381904D01*
X163105714Y-78477142D01*
X163153333Y-78524761D01*
X163248571Y-78572380D01*
X163439047Y-78572380D01*
X163534285Y-78524761D01*
X163581904Y-78477142D01*
X163629523Y-78381904D01*
X163629523Y-78191428D01*
X163581904Y-78096190D01*
X163534285Y-78048571D01*
X163439047Y-78000952D01*
%TO.C,J4*%
X170736666Y-79822380D02*
X170736666Y-80536666D01*
X170689047Y-80679523D01*
X170593809Y-80774761D01*
X170450952Y-80822380D01*
X170355714Y-80822380D01*
X171641428Y-80155714D02*
X171641428Y-80822380D01*
X171403333Y-79774761D02*
X171165238Y-80489047D01*
X171784285Y-80489047D01*
%TO.C,C7*%
X130747142Y-89086666D02*
X130794761Y-89134285D01*
X130842380Y-89277142D01*
X130842380Y-89372380D01*
X130794761Y-89515238D01*
X130699523Y-89610476D01*
X130604285Y-89658095D01*
X130413809Y-89705714D01*
X130270952Y-89705714D01*
X130080476Y-89658095D01*
X129985238Y-89610476D01*
X129890000Y-89515238D01*
X129842380Y-89372380D01*
X129842380Y-89277142D01*
X129890000Y-89134285D01*
X129937619Y-89086666D01*
X129842380Y-88753333D02*
X129842380Y-88086666D01*
X130842380Y-88515238D01*
%TO.C,J6*%
X192871666Y-89227380D02*
X192871666Y-89941666D01*
X192824047Y-90084523D01*
X192728809Y-90179761D01*
X192585952Y-90227380D01*
X192490714Y-90227380D01*
X193776428Y-89227380D02*
X193585952Y-89227380D01*
X193490714Y-89275000D01*
X193443095Y-89322619D01*
X193347857Y-89465476D01*
X193300238Y-89655952D01*
X193300238Y-90036904D01*
X193347857Y-90132142D01*
X193395476Y-90179761D01*
X193490714Y-90227380D01*
X193681190Y-90227380D01*
X193776428Y-90179761D01*
X193824047Y-90132142D01*
X193871666Y-90036904D01*
X193871666Y-89798809D01*
X193824047Y-89703571D01*
X193776428Y-89655952D01*
X193681190Y-89608333D01*
X193490714Y-89608333D01*
X193395476Y-89655952D01*
X193347857Y-89703571D01*
X193300238Y-89798809D01*
%TO.C,Y1*%
X138573809Y-112501190D02*
X138573809Y-112977380D01*
X138240476Y-111977380D02*
X138573809Y-112501190D01*
X138907142Y-111977380D01*
X139764285Y-112977380D02*
X139192857Y-112977380D01*
X139478571Y-112977380D02*
X139478571Y-111977380D01*
X139383333Y-112120238D01*
X139288095Y-112215476D01*
X139192857Y-112263095D01*
%TO.C,J2*%
X90822380Y-101003333D02*
X91536666Y-101003333D01*
X91679523Y-101050952D01*
X91774761Y-101146190D01*
X91822380Y-101289047D01*
X91822380Y-101384285D01*
X90917619Y-100574761D02*
X90870000Y-100527142D01*
X90822380Y-100431904D01*
X90822380Y-100193809D01*
X90870000Y-100098571D01*
X90917619Y-100050952D01*
X91012857Y-100003333D01*
X91108095Y-100003333D01*
X91250952Y-100050952D01*
X91822380Y-100622380D01*
X91822380Y-100003333D01*
%TO.C,H6*%
X87058095Y-47572380D02*
X87058095Y-46572380D01*
X87058095Y-47048571D02*
X87629523Y-47048571D01*
X87629523Y-47572380D02*
X87629523Y-46572380D01*
X88534285Y-46572380D02*
X88343809Y-46572380D01*
X88248571Y-46620000D01*
X88200952Y-46667619D01*
X88105714Y-46810476D01*
X88058095Y-47000952D01*
X88058095Y-47381904D01*
X88105714Y-47477142D01*
X88153333Y-47524761D01*
X88248571Y-47572380D01*
X88439047Y-47572380D01*
X88534285Y-47524761D01*
X88581904Y-47477142D01*
X88629523Y-47381904D01*
X88629523Y-47143809D01*
X88581904Y-47048571D01*
X88534285Y-47000952D01*
X88439047Y-46953333D01*
X88248571Y-46953333D01*
X88153333Y-47000952D01*
X88105714Y-47048571D01*
X88058095Y-47143809D01*
%TO.C,J7*%
X194496666Y-47227380D02*
X194496666Y-47941666D01*
X194449047Y-48084523D01*
X194353809Y-48179761D01*
X194210952Y-48227380D01*
X194115714Y-48227380D01*
X194877619Y-47227380D02*
X195544285Y-47227380D01*
X195115714Y-48227380D01*
%TO.C,C4*%
X139747142Y-89086666D02*
X139794761Y-89134285D01*
X139842380Y-89277142D01*
X139842380Y-89372380D01*
X139794761Y-89515238D01*
X139699523Y-89610476D01*
X139604285Y-89658095D01*
X139413809Y-89705714D01*
X139270952Y-89705714D01*
X139080476Y-89658095D01*
X138985238Y-89610476D01*
X138890000Y-89515238D01*
X138842380Y-89372380D01*
X138842380Y-89277142D01*
X138890000Y-89134285D01*
X138937619Y-89086666D01*
X139175714Y-88229523D02*
X139842380Y-88229523D01*
X138794761Y-88467619D02*
X139509047Y-88705714D01*
X139509047Y-88086666D01*
D11*
%TO.C,mouse-bite-2mm-slot*%
X94820000Y-80920000D02*
G75*
G03*
X94820000Y-78920000I0J1000000D01*
G01*
X98820000Y-78920000D02*
G75*
G03*
X98820000Y-80920000I0J-1000000D01*
G01*
D12*
%TO.C,C3*%
X143310000Y-89066267D02*
X143310000Y-88773733D01*
X144330000Y-89066267D02*
X144330000Y-88773733D01*
%TO.C,SW3*%
X177070000Y-74170000D02*
X177070000Y-69670000D01*
X173070000Y-75420000D02*
X174570000Y-75420000D01*
X174570000Y-68420000D02*
X173070000Y-68420000D01*
X170570000Y-69670000D02*
X170570000Y-74170000D01*
%TO.C,R1*%
X108297500Y-103174724D02*
X108297500Y-102665276D01*
X109342500Y-103174724D02*
X109342500Y-102665276D01*
%TO.C,U2*%
X173630000Y-99170000D02*
X173630000Y-95720000D01*
X168510000Y-99170000D02*
X168510000Y-101120000D01*
X173630000Y-99170000D02*
X173630000Y-101120000D01*
X168510000Y-99170000D02*
X168510000Y-97220000D01*
%TO.C,C6*%
X135330000Y-89066267D02*
X135330000Y-88773733D01*
X134310000Y-89066267D02*
X134310000Y-88773733D01*
%TO.C,J5*%
X96140000Y-118590000D02*
X96140000Y-121250000D01*
X108900000Y-118590000D02*
X108900000Y-121250000D01*
X111500000Y-118590000D02*
X111500000Y-119920000D01*
X108900000Y-118590000D02*
X96140000Y-118590000D01*
X108900000Y-121250000D02*
X96140000Y-121250000D01*
X110170000Y-118590000D02*
X111500000Y-118590000D01*
D11*
%TO.C,mouse-bite-2mm-slot*%
X135820000Y-80920000D02*
G75*
G03*
X135820000Y-78920000I0J1000000D01*
G01*
X139820000Y-78920000D02*
G75*
G03*
X139820000Y-80920000I0J-1000000D01*
G01*
D12*
%TO.C,R4*%
X132592500Y-116665276D02*
X132592500Y-117174724D01*
X131547500Y-116665276D02*
X131547500Y-117174724D01*
D11*
%TO.C,mouse-bite-2mm-slot*%
X179820000Y-78920000D02*
G75*
G03*
X179820000Y-80920000I0J-1000000D01*
G01*
X175820000Y-80920000D02*
G75*
G03*
X175820000Y-78920000I0J1000000D01*
G01*
D12*
%TO.C,U1*%
X151670000Y-101185000D02*
X151670000Y-96685000D01*
X151670000Y-96685000D02*
X115990000Y-96685000D01*
X115990000Y-99935000D02*
X115990000Y-101185000D01*
X115990000Y-96685000D02*
X115990000Y-97935000D01*
X115990000Y-101185000D02*
X151670000Y-101185000D01*
X115990000Y-99935000D02*
G75*
G03*
X115990000Y-97935000I0J1000000D01*
G01*
%TO.C,C1*%
X142080000Y-116773733D02*
X142080000Y-117066267D01*
X141060000Y-116773733D02*
X141060000Y-117066267D01*
%TO.C,C5*%
X137310000Y-89066267D02*
X137310000Y-88773733D01*
X138330000Y-89066267D02*
X138330000Y-88773733D01*
%TO.C,SW2*%
X184220000Y-45070000D02*
X172420000Y-45070000D01*
X172420000Y-49170000D02*
X172420000Y-45070000D01*
X182120000Y-43670000D02*
X182420000Y-43370000D01*
X184220000Y-57270000D02*
X181820000Y-57270000D01*
X178320000Y-50670000D02*
X178320000Y-51670000D01*
X184220000Y-49170000D02*
X184220000Y-45070000D01*
X174820000Y-57270000D02*
X172420000Y-57270000D01*
X184220000Y-53170000D02*
X184220000Y-57270000D01*
X172420000Y-57270000D02*
X172420000Y-53170000D01*
X182420000Y-43970000D02*
X182120000Y-43670000D01*
X178820000Y-51170000D02*
X177820000Y-51170000D01*
X182420000Y-43370000D02*
X182420000Y-43970000D01*
X179620000Y-57270000D02*
X177020000Y-57270000D01*
X181320000Y-51170000D02*
G75*
G03*
X181320000Y-51170000I-3000000J0D01*
G01*
%TO.C,SW1*%
X100570000Y-105420000D02*
X99070000Y-105420000D01*
X96570000Y-106670000D02*
X96570000Y-111170000D01*
X99070000Y-112420000D02*
X100570000Y-112420000D01*
X103070000Y-111170000D02*
X103070000Y-106670000D01*
%TO.C,J3*%
X166810000Y-118636000D02*
X166751000Y-118694000D01*
X166640000Y-118396000D02*
X166546000Y-118489000D01*
X160020000Y-121720000D02*
X161520000Y-121720000D01*
X160260000Y-112360000D02*
X170380000Y-112360000D01*
X160260000Y-119920000D02*
X170380000Y-119920000D01*
X160260000Y-112360000D02*
X160260000Y-121480000D01*
X160020000Y-119980000D02*
X160020000Y-121720000D01*
X169095000Y-116351000D02*
X169001000Y-116444000D01*
X168890000Y-116145000D02*
X168831000Y-116204000D01*
X170380000Y-112360000D02*
X170380000Y-121480000D01*
X160260000Y-121480000D02*
X170380000Y-121480000D01*
X162820000Y-119100000D02*
G75*
G03*
X163608712Y-118903352I0J1680000D01*
G01*
X162031000Y-118904000D02*
G75*
G03*
X162849383Y-119100450I788998J1483995D01*
G01*
X163609000Y-115936000D02*
G75*
G03*
X162030911Y-115936047I-789000J-1483995D01*
G01*
X164304000Y-118209000D02*
G75*
G03*
X164303953Y-116630911I-1484004J789000D01*
G01*
X161336000Y-116631000D02*
G75*
G03*
X161336047Y-118209089I1483995J-789000D01*
G01*
X163720000Y-114420000D02*
G75*
G03*
X163720000Y-114420000I-900000J0D01*
G01*
X169500000Y-117420000D02*
G75*
G03*
X169500000Y-117420000I-1680000J0D01*
G01*
X168720000Y-114420000D02*
G75*
G03*
X168720000Y-114420000I-900000J0D01*
G01*
%TO.C,J1*%
X170020000Y-121720000D02*
X171520000Y-121720000D01*
X180380000Y-112360000D02*
X180380000Y-121480000D01*
X170020000Y-119980000D02*
X170020000Y-121720000D01*
X170260000Y-119920000D02*
X180380000Y-119920000D01*
X170260000Y-112360000D02*
X170260000Y-121480000D01*
X179095000Y-116351000D02*
X179001000Y-116444000D01*
X178890000Y-116145000D02*
X178831000Y-116204000D01*
X176640000Y-118396000D02*
X176546000Y-118489000D01*
X170260000Y-112360000D02*
X180380000Y-112360000D01*
X170260000Y-121480000D02*
X180380000Y-121480000D01*
X176810000Y-118636000D02*
X176751000Y-118694000D01*
X171336000Y-116631000D02*
G75*
G03*
X171336047Y-118209089I1483995J-789000D01*
G01*
X174304000Y-118209000D02*
G75*
G03*
X174303953Y-116630911I-1484004J789000D01*
G01*
X172031000Y-118904000D02*
G75*
G03*
X172849383Y-119100450I788998J1483995D01*
G01*
X173609000Y-115936000D02*
G75*
G03*
X172030911Y-115936047I-789000J-1483995D01*
G01*
X172820000Y-119100000D02*
G75*
G03*
X173608712Y-118903352I0J1680000D01*
G01*
X178720000Y-114420000D02*
G75*
G03*
X178720000Y-114420000I-900000J0D01*
G01*
X173720000Y-114420000D02*
G75*
G03*
X173720000Y-114420000I-900000J0D01*
G01*
X179500000Y-117420000D02*
G75*
G03*
X179500000Y-117420000I-1680000J0D01*
G01*
%TO.C,C2*%
X137080000Y-116773733D02*
X137080000Y-117066267D01*
X136060000Y-116773733D02*
X136060000Y-117066267D01*
%TO.C,BZ1*%
X130220000Y-115420000D02*
G75*
G03*
X130220000Y-115420000I-6100000J0D01*
G01*
%TO.C,SW4*%
X187070000Y-74170000D02*
X187070000Y-69670000D01*
X183070000Y-75420000D02*
X184570000Y-75420000D01*
X180570000Y-69670000D02*
X180570000Y-74170000D01*
X184570000Y-68420000D02*
X183070000Y-68420000D01*
%TO.C,J4*%
X174880000Y-87430000D02*
X174880000Y-81460000D01*
X174870000Y-81470000D02*
X173070000Y-81470000D01*
X168020000Y-83720000D02*
X168020000Y-86670000D01*
X171570000Y-81470000D02*
X170570000Y-81470000D01*
X174120000Y-83720000D02*
X174120000Y-86670000D01*
X173070000Y-82220000D02*
X174870000Y-82220000D01*
X174870000Y-82220000D02*
X174870000Y-81470000D01*
X166970000Y-81170000D02*
X166970000Y-82420000D01*
X167270000Y-83720000D02*
X168020000Y-83720000D01*
X174880000Y-81460000D02*
X167260000Y-81460000D01*
X174120000Y-86670000D02*
X171070000Y-86670000D01*
X167270000Y-81470000D02*
X167270000Y-82220000D01*
X169070000Y-81470000D02*
X167270000Y-81470000D01*
X167260000Y-81460000D02*
X167260000Y-87430000D01*
X169070000Y-82220000D02*
X169070000Y-81470000D01*
X168020000Y-86670000D02*
X171070000Y-86670000D01*
X170570000Y-81470000D02*
X170570000Y-82220000D01*
X174870000Y-83720000D02*
X174120000Y-83720000D01*
X173070000Y-81470000D02*
X173070000Y-82220000D01*
X168220000Y-81170000D02*
X166970000Y-81170000D01*
X167260000Y-87430000D02*
X174880000Y-87430000D01*
X167270000Y-82220000D02*
X169070000Y-82220000D01*
X170570000Y-82220000D02*
X171570000Y-82220000D01*
X171570000Y-82220000D02*
X171570000Y-81470000D01*
%TO.C,C7*%
X132330000Y-89066267D02*
X132330000Y-88773733D01*
X131310000Y-89066267D02*
X131310000Y-88773733D01*
%TO.C,J6*%
X198920000Y-94205000D02*
X198920000Y-94965000D01*
X189862929Y-105125000D02*
X190260000Y-105125000D01*
X189930000Y-92425000D02*
X190260000Y-92425000D01*
X192920000Y-91725000D02*
X198920000Y-91725000D01*
X189862929Y-97505000D02*
X190260000Y-97505000D01*
X198920000Y-92425000D02*
X192920000Y-92425000D01*
X192920000Y-92325000D02*
X198920000Y-92325000D01*
X189862929Y-94205000D02*
X190260000Y-94205000D01*
X190260000Y-98395000D02*
X192920000Y-98395000D01*
X198920000Y-104365000D02*
X198920000Y-105125000D01*
X189862929Y-106905000D02*
X190260000Y-106905000D01*
X187550000Y-90775000D02*
X188820000Y-90775000D01*
X192920000Y-111155000D02*
X192920000Y-90715000D01*
X198920000Y-109445000D02*
X198920000Y-110205000D01*
X192920000Y-106905000D02*
X198920000Y-106905000D01*
X192920000Y-91965000D02*
X198920000Y-91965000D01*
X189862929Y-94965000D02*
X190260000Y-94965000D01*
X198920000Y-94965000D02*
X192920000Y-94965000D01*
X198920000Y-107665000D02*
X192920000Y-107665000D01*
X190260000Y-93315000D02*
X192920000Y-93315000D01*
X190260000Y-95855000D02*
X192920000Y-95855000D01*
X190260000Y-111155000D02*
X192920000Y-111155000D01*
X190260000Y-103475000D02*
X192920000Y-103475000D01*
X198920000Y-100045000D02*
X192920000Y-100045000D01*
X198920000Y-91665000D02*
X198920000Y-92425000D01*
X192920000Y-99285000D02*
X198920000Y-99285000D01*
X192920000Y-109445000D02*
X198920000Y-109445000D01*
X190260000Y-90715000D02*
X190260000Y-111155000D01*
X192920000Y-90715000D02*
X190260000Y-90715000D01*
X192920000Y-104365000D02*
X198920000Y-104365000D01*
X198920000Y-106905000D02*
X198920000Y-107665000D01*
X192920000Y-91665000D02*
X198920000Y-91665000D01*
X198920000Y-97505000D02*
X192920000Y-97505000D01*
X198920000Y-110205000D02*
X192920000Y-110205000D01*
X190260000Y-108555000D02*
X192920000Y-108555000D01*
X198920000Y-105125000D02*
X192920000Y-105125000D01*
X198920000Y-102585000D02*
X192920000Y-102585000D01*
X189862929Y-100045000D02*
X190260000Y-100045000D01*
X189862929Y-109445000D02*
X190260000Y-109445000D01*
X189862929Y-99285000D02*
X190260000Y-99285000D01*
X192920000Y-91845000D02*
X198920000Y-91845000D01*
X198920000Y-101825000D02*
X198920000Y-102585000D01*
X192920000Y-92205000D02*
X198920000Y-92205000D01*
X192920000Y-101825000D02*
X198920000Y-101825000D01*
X189862929Y-101825000D02*
X190260000Y-101825000D01*
X189862929Y-102585000D02*
X190260000Y-102585000D01*
X198920000Y-99285000D02*
X198920000Y-100045000D01*
X189862929Y-104365000D02*
X190260000Y-104365000D01*
X189862929Y-107665000D02*
X190260000Y-107665000D01*
X192920000Y-94205000D02*
X198920000Y-94205000D01*
X190260000Y-100935000D02*
X192920000Y-100935000D01*
X192920000Y-96745000D02*
X198920000Y-96745000D01*
X198920000Y-96745000D02*
X198920000Y-97505000D01*
X189930000Y-91665000D02*
X190260000Y-91665000D01*
X189862929Y-96745000D02*
X190260000Y-96745000D01*
X192920000Y-92085000D02*
X198920000Y-92085000D01*
X187550000Y-92045000D02*
X187550000Y-90775000D01*
X189862929Y-110205000D02*
X190260000Y-110205000D01*
X190260000Y-106015000D02*
X192920000Y-106015000D01*
%TO.C,Y1*%
X142250000Y-106475000D02*
X135850000Y-106475000D01*
X142250000Y-111525000D02*
X135850000Y-111525000D01*
X135850000Y-106475000D02*
G75*
G03*
X135850000Y-111525000I0J-2525000D01*
G01*
X142250000Y-111525000D02*
G75*
G03*
X142250000Y-106475000I0J2525000D01*
G01*
%TO.C,J2*%
X90270000Y-94370000D02*
X89520000Y-94370000D01*
X89520000Y-106970000D02*
X90270000Y-106970000D01*
X89520000Y-97670000D02*
X89520000Y-103670000D01*
X90270000Y-96170000D02*
X90270000Y-94370000D01*
X90270000Y-97670000D02*
X89520000Y-97670000D01*
X89520000Y-94370000D02*
X89520000Y-96170000D01*
X89520000Y-105170000D02*
X89520000Y-106970000D01*
X89520000Y-103670000D02*
X90270000Y-103670000D01*
X90270000Y-106970000D02*
X90270000Y-105170000D01*
X88020000Y-106970000D02*
X88020000Y-106220000D01*
X90570000Y-95320000D02*
X90570000Y-94070000D01*
X88020000Y-106220000D02*
X85070000Y-106220000D01*
X90270000Y-105170000D02*
X89520000Y-105170000D01*
X88020000Y-95120000D02*
X85070000Y-95120000D01*
X90570000Y-94070000D02*
X89320000Y-94070000D01*
X90280000Y-94360000D02*
X84310000Y-94360000D01*
X90270000Y-103670000D02*
X90270000Y-97670000D01*
X89520000Y-96170000D02*
X90270000Y-96170000D01*
X84310000Y-106980000D02*
X90280000Y-106980000D01*
X85070000Y-106220000D02*
X85070000Y-100670000D01*
X88020000Y-94370000D02*
X88020000Y-95120000D01*
X84310000Y-94360000D02*
X84310000Y-106980000D01*
X85070000Y-95120000D02*
X85070000Y-100670000D01*
X90280000Y-106980000D02*
X90280000Y-94360000D01*
%TO.C,J7*%
X191885000Y-53855000D02*
X194545000Y-53855000D01*
X191487929Y-52965000D02*
X191885000Y-52965000D01*
X191885000Y-48715000D02*
X191885000Y-69155000D01*
X194545000Y-59825000D02*
X200545000Y-59825000D01*
X189175000Y-50045000D02*
X189175000Y-48775000D01*
X194545000Y-50085000D02*
X200545000Y-50085000D01*
X191487929Y-60585000D02*
X191885000Y-60585000D01*
X194545000Y-57285000D02*
X200545000Y-57285000D01*
X200545000Y-58045000D02*
X194545000Y-58045000D01*
X191487929Y-55505000D02*
X191885000Y-55505000D01*
X191487929Y-67445000D02*
X191885000Y-67445000D01*
X200545000Y-64905000D02*
X200545000Y-65665000D01*
X191487929Y-58045000D02*
X191885000Y-58045000D01*
X194545000Y-62365000D02*
X200545000Y-62365000D01*
X191885000Y-58935000D02*
X194545000Y-58935000D01*
X191555000Y-49665000D02*
X191885000Y-49665000D01*
X200545000Y-50425000D02*
X194545000Y-50425000D01*
X189175000Y-48775000D02*
X190445000Y-48775000D01*
X200545000Y-67445000D02*
X200545000Y-68205000D01*
X200545000Y-49665000D02*
X200545000Y-50425000D01*
X191487929Y-64905000D02*
X191885000Y-64905000D01*
X191885000Y-51315000D02*
X194545000Y-51315000D01*
X194545000Y-49845000D02*
X200545000Y-49845000D01*
X194545000Y-48715000D02*
X191885000Y-48715000D01*
X200545000Y-68205000D02*
X194545000Y-68205000D01*
X194545000Y-67445000D02*
X200545000Y-67445000D01*
X200545000Y-52205000D02*
X200545000Y-52965000D01*
X191885000Y-56395000D02*
X194545000Y-56395000D01*
X200545000Y-63125000D02*
X194545000Y-63125000D01*
X200545000Y-52965000D02*
X194545000Y-52965000D01*
X191487929Y-54745000D02*
X191885000Y-54745000D01*
X194545000Y-64905000D02*
X200545000Y-64905000D01*
X194545000Y-49665000D02*
X200545000Y-49665000D01*
X194545000Y-52205000D02*
X200545000Y-52205000D01*
X191487929Y-59825000D02*
X191885000Y-59825000D01*
X191487929Y-63125000D02*
X191885000Y-63125000D01*
X194545000Y-49725000D02*
X200545000Y-49725000D01*
X200545000Y-65665000D02*
X194545000Y-65665000D01*
X194545000Y-50205000D02*
X200545000Y-50205000D01*
X191885000Y-69155000D02*
X194545000Y-69155000D01*
X200545000Y-59825000D02*
X200545000Y-60585000D01*
X191487929Y-62365000D02*
X191885000Y-62365000D01*
X191487929Y-65665000D02*
X191885000Y-65665000D01*
X200545000Y-62365000D02*
X200545000Y-63125000D01*
X191487929Y-52205000D02*
X191885000Y-52205000D01*
X200545000Y-60585000D02*
X194545000Y-60585000D01*
X200545000Y-55505000D02*
X194545000Y-55505000D01*
X194545000Y-69155000D02*
X194545000Y-48715000D01*
X200545000Y-54745000D02*
X200545000Y-55505000D01*
X191487929Y-68205000D02*
X191885000Y-68205000D01*
X194545000Y-54745000D02*
X200545000Y-54745000D01*
X191885000Y-64015000D02*
X194545000Y-64015000D01*
X194545000Y-49965000D02*
X200545000Y-49965000D01*
X200545000Y-57285000D02*
X200545000Y-58045000D01*
X191885000Y-61475000D02*
X194545000Y-61475000D01*
X194545000Y-50325000D02*
X200545000Y-50325000D01*
X191487929Y-57285000D02*
X191885000Y-57285000D01*
X191885000Y-66555000D02*
X194545000Y-66555000D01*
X191555000Y-50425000D02*
X191885000Y-50425000D01*
%TO.C,C4*%
X140310000Y-89066267D02*
X140310000Y-88773733D01*
X141330000Y-89066267D02*
X141330000Y-88773733D01*
%TD*%
M02*
