M48
; DRILL file {KiCad (6.0.5)} date Mon Nov 21 22:14:37 2022
; FORMAT={-:-/ absolute / inch / decimal}
; #@! TF.CreationDate,2022-11-21T22:14:37-06:00
; #@! TF.GenerationSoftware,Kicad,Pcbnew,(6.0.5)
; #@! TF.FileFunction,Plated,1,2,PTH
FMAT,2
INCH
; #@! TA.AperFunction,Plated,PTH,ComponentDrill
T1C0.0197
; #@! TA.AperFunction,Plated,PTH,ViaDrill
T2C0.0276
; #@! TA.AperFunction,Plated,PTH,ComponentDrill
T3C0.0315
; #@! TA.AperFunction,Plated,PTH,ComponentDrill
T4C0.0374
; #@! TA.AperFunction,Plated,PTH,ComponentDrill
T5C0.0394
; #@! TA.AperFunction,Plated,PTH,ComponentDrill
T6C0.0433
; #@! TA.AperFunction,Plated,PTH,ComponentDrill
T7C0.0512
; #@! TA.AperFunction,Plated,PTH,ComponentDrill
T8C0.0591
; #@! TA.AperFunction,Plated,PTH,ComponentDrill
T9C0.1260
%
G90
G05
T1
X3.363Y-1.6898
X3.363Y-2.9102
X3.3907Y-1.623
X3.3907Y-1.7566
X3.3907Y-2.8434
X3.3907Y-2.977
X3.4024Y-3.3827
X3.4024Y-4.6031
X3.43Y-3.3159
X3.43Y-3.4495
X3.43Y-4.5363
X3.43Y-4.67
X3.4575Y-1.5953
X3.4575Y-1.7843
X3.4575Y-2.8157
X3.4575Y-3.0047
X3.4969Y-3.2882
X3.4969Y-3.4772
X3.4969Y-4.5087
X3.4969Y-4.6976
X3.5243Y-1.623
X3.5243Y-1.7566
X3.5243Y-2.8434
X3.5243Y-2.977
X3.552Y-1.6898
X3.552Y-2.9102
X3.5637Y-3.3159
X3.5637Y-3.4495
X3.5637Y-4.5363
X3.5637Y-4.67
X3.5913Y-3.3827
X3.5913Y-4.6031
X6.3157Y-1.6898
X6.3157Y-2.9102
X6.3434Y-1.623
X6.3434Y-1.7566
X6.3434Y-2.8434
X6.3434Y-2.977
X6.4102Y-1.5953
X6.4102Y-1.7843
X6.4102Y-2.8157
X6.4102Y-3.0047
X6.477Y-1.623
X6.477Y-1.7566
X6.477Y-2.8434
X6.477Y-2.977
X6.5047Y-1.6898
X6.5047Y-2.9102
X7.3541Y-3.3827
X7.3541Y-4.6031
X7.3818Y-3.3159
X7.3818Y-3.4495
X7.3818Y-4.5363
X7.3818Y-4.67
X7.4486Y-3.2882
X7.4486Y-3.4772
X7.4486Y-4.5087
X7.4486Y-4.6976
X7.5154Y-3.3159
X7.5154Y-3.4495
X7.5154Y-4.5363
X7.5154Y-4.67
X7.5431Y-3.3827
X7.5431Y-4.6031
T2
X4.2843Y-3.8945
X4.2843Y-4.1602
X4.3236Y-4.5343
X5.1189Y-4.174
X5.1996Y-3.6189
X5.1996Y-4.4752
X5.3768Y-4.4555
X5.426Y-3.6287
X5.5736Y-4.4555
X5.6228Y-4.1799
X5.7213Y-4.1406
X6.6858Y-3.5402
X6.7843Y-3.5402
X6.8236Y-1.6268
X7.0047Y-4.3157
X7.0559Y-3.5165
X7.2567Y-1.7213
X7.4299Y-1.7213
X7.4457Y-1.6228
T3
X4.6189Y-3.7451
X4.6189Y-4.0451
X4.7189Y-3.7451
X4.7189Y-4.0451
X4.8189Y-3.7451
X4.8189Y-4.0451
X4.9189Y-3.7451
X4.9189Y-4.0451
X5.0189Y-3.7451
X5.0189Y-4.0451
X5.1189Y-3.7451
X5.1189Y-4.0451
X5.2189Y-3.7451
X5.2189Y-4.0451
X5.3189Y-3.7451
X5.3189Y-4.0451
X5.4189Y-3.7451
X5.4189Y-4.0451
X5.5189Y-3.7451
X5.5189Y-4.0451
X5.6189Y-3.7451
X5.6189Y-4.0451
X5.7189Y-3.7451
X5.7189Y-4.0451
X5.8189Y-3.7451
X5.8189Y-4.0451
X5.9189Y-3.7451
X5.9189Y-4.0451
T4
X3.4575Y-3.8157
X3.4575Y-3.9142
X3.4575Y-4.0126
X3.4575Y-4.111
T5
X3.8374Y-4.7213
X3.9374Y-4.7213
X4.0374Y-4.7213
X4.1374Y-4.7213
X4.2374Y-4.7213
X4.3374Y-4.7213
X4.737Y-4.5441
X5.0362Y-4.5441
X6.6858Y-3.3039
X6.7843Y-3.3039
X6.922Y-1.7193
X6.922Y-2.2902
X7.0205Y-1.7193
X7.1189Y-1.7193
X7.1189Y-2.2902
X7.4339Y-3.6238
X7.4339Y-3.7238
X7.4339Y-3.8238
X7.4339Y-3.9238
X7.4339Y-4.0238
X7.4339Y-4.1238
X7.4339Y-4.2238
X7.4339Y-4.3238
X7.4978Y-1.9703
X7.4978Y-2.0703
X7.4978Y-2.1703
X7.4978Y-2.2703
X7.4978Y-2.3703
X7.4978Y-2.4703
X7.4978Y-2.5703
X7.4978Y-2.6703
T6
X3.8413Y-4.1602
X3.8413Y-4.4161
X4.0185Y-4.1602
X4.0185Y-4.4161
X6.7547Y-2.7035
X6.7547Y-2.9594
X6.9319Y-2.7035
X6.9319Y-2.9594
X7.1484Y-2.7035
X7.1484Y-2.9594
X7.3256Y-2.7035
X7.3256Y-2.9594
T7
X6.4102Y-4.6228
X6.6071Y-4.6228
X6.8039Y-4.6228
X7.0008Y-4.6228
T8
X5.378Y-4.2913
X5.5709Y-4.2913
T9
X3.4575Y-1.6898
X3.4575Y-2.9102
X3.4969Y-3.3827
X3.4969Y-4.6031
X6.4102Y-1.6898
X6.4102Y-2.9102
X7.4486Y-3.3827
X7.4486Y-4.6031
T8
G00X6.8Y-1.989
M15
G01X6.8Y-2.0402
M16
G05
G00X7.2409Y-1.989
M15
G01X7.2409Y-2.0402
M16
G05
T0
M30
