%TF.GenerationSoftware,KiCad,Pcbnew,(6.0.5)*%
%TF.CreationDate,2022-11-21T22:14:33-06:00*%
%TF.ProjectId,A10102,41313031-3032-42e6-9b69-6361645f7063,rev?*%
%TF.SameCoordinates,Original*%
%TF.FileFunction,Legend,Bot*%
%TF.FilePolarity,Positive*%
%FSLAX46Y46*%
G04 Gerber Fmt 4.6, Leading zero omitted, Abs format (unit mm)*
G04 Created by KiCad (PCBNEW (6.0.5)) date 2022-11-21 22:14:33*
%MOMM*%
%LPD*%
G01*
G04 APERTURE LIST*
%ADD10C,0.150000*%
%ADD11C,0.120000*%
G04 APERTURE END LIST*
D10*
%TO.C,H4*%
X89581904Y-82172380D02*
X89581904Y-81172380D01*
X89581904Y-81648571D02*
X89010476Y-81648571D01*
X89010476Y-82172380D02*
X89010476Y-81172380D01*
X88105714Y-81505714D02*
X88105714Y-82172380D01*
X88343809Y-81124761D02*
X88581904Y-81839047D01*
X87962857Y-81839047D01*
%TO.C,H2*%
X189956904Y-113172380D02*
X189956904Y-112172380D01*
X189956904Y-112648571D02*
X189385476Y-112648571D01*
X189385476Y-113172380D02*
X189385476Y-112172380D01*
X188956904Y-112267619D02*
X188909285Y-112220000D01*
X188814047Y-112172380D01*
X188575952Y-112172380D01*
X188480714Y-112220000D01*
X188433095Y-112267619D01*
X188385476Y-112362857D01*
X188385476Y-112458095D01*
X188433095Y-112600952D01*
X189004523Y-113172380D01*
X188385476Y-113172380D01*
%TO.C,H3*%
X189956904Y-82172380D02*
X189956904Y-81172380D01*
X189956904Y-81648571D02*
X189385476Y-81648571D01*
X189385476Y-82172380D02*
X189385476Y-81172380D01*
X189004523Y-81172380D02*
X188385476Y-81172380D01*
X188718809Y-81553333D01*
X188575952Y-81553333D01*
X188480714Y-81600952D01*
X188433095Y-81648571D01*
X188385476Y-81743809D01*
X188385476Y-81981904D01*
X188433095Y-82077142D01*
X188480714Y-82124761D01*
X188575952Y-82172380D01*
X188861666Y-82172380D01*
X188956904Y-82124761D01*
X189004523Y-82077142D01*
%TO.C,R3*%
X174186666Y-46342380D02*
X174520000Y-45866190D01*
X174758095Y-46342380D02*
X174758095Y-45342380D01*
X174377142Y-45342380D01*
X174281904Y-45390000D01*
X174234285Y-45437619D01*
X174186666Y-45532857D01*
X174186666Y-45675714D01*
X174234285Y-45770952D01*
X174281904Y-45818571D01*
X174377142Y-45866190D01*
X174758095Y-45866190D01*
X173853333Y-45342380D02*
X173234285Y-45342380D01*
X173567619Y-45723333D01*
X173424761Y-45723333D01*
X173329523Y-45770952D01*
X173281904Y-45818571D01*
X173234285Y-45913809D01*
X173234285Y-46151904D01*
X173281904Y-46247142D01*
X173329523Y-46294761D01*
X173424761Y-46342380D01*
X173710476Y-46342380D01*
X173805714Y-46294761D01*
X173853333Y-46247142D01*
%TO.C,H1*%
X89581904Y-113172380D02*
X89581904Y-112172380D01*
X89581904Y-112648571D02*
X89010476Y-112648571D01*
X89010476Y-113172380D02*
X89010476Y-112172380D01*
X88010476Y-113172380D02*
X88581904Y-113172380D01*
X88296190Y-113172380D02*
X88296190Y-112172380D01*
X88391428Y-112315238D01*
X88486666Y-112410476D01*
X88581904Y-112458095D01*
%TO.C,R2*%
X182786666Y-49002380D02*
X183120000Y-48526190D01*
X183358095Y-49002380D02*
X183358095Y-48002380D01*
X182977142Y-48002380D01*
X182881904Y-48050000D01*
X182834285Y-48097619D01*
X182786666Y-48192857D01*
X182786666Y-48335714D01*
X182834285Y-48430952D01*
X182881904Y-48478571D01*
X182977142Y-48526190D01*
X183358095Y-48526190D01*
X182405714Y-48097619D02*
X182358095Y-48050000D01*
X182262857Y-48002380D01*
X182024761Y-48002380D01*
X181929523Y-48050000D01*
X181881904Y-48097619D01*
X181834285Y-48192857D01*
X181834285Y-48288095D01*
X181881904Y-48430952D01*
X182453333Y-49002380D01*
X181834285Y-49002380D01*
D11*
%TO.C,R3*%
X174274724Y-46797500D02*
X173765276Y-46797500D01*
X174274724Y-47842500D02*
X173765276Y-47842500D01*
%TO.C,R2*%
X182365276Y-47642500D02*
X182874724Y-47642500D01*
X182365276Y-46597500D02*
X182874724Y-46597500D01*
%TD*%
M02*
