%TF.GenerationSoftware,KiCad,Pcbnew,(6.0.5)*%
%TF.CreationDate,2022-11-21T22:14:33-06:00*%
%TF.ProjectId,A10102,41313031-3032-42e6-9b69-6361645f7063,rev?*%
%TF.SameCoordinates,Original*%
%TF.FileFunction,Profile,NP*%
%FSLAX46Y46*%
G04 Gerber Fmt 4.6, Leading zero omitted, Abs format (unit mm)*
G04 Created by KiCad (PCBNEW (6.0.5)) date 2022-11-21 22:14:33*
%MOMM*%
%LPD*%
G01*
G04 APERTURE LIST*
%TA.AperFunction,Profile*%
%ADD10C,0.100000*%
%TD*%
G04 APERTURE END LIST*
D10*
X86820000Y-80920000D02*
G75*
G03*
X83820000Y-83920000I0J-3000000D01*
G01*
X94820000Y-80920000D02*
G75*
G03*
X94820000Y-78920000I0J1000000D01*
G01*
X98820000Y-80920000D02*
X135820000Y-80920000D01*
X179820000Y-78920000D02*
G75*
G03*
X179820000Y-80920000I0J-1000000D01*
G01*
X85820000Y-38920000D02*
G75*
G03*
X83820000Y-40920000I0J-2000000D01*
G01*
X98820000Y-78920000D02*
X135820000Y-78920000D01*
X190820000Y-121920000D02*
G75*
G03*
X193820000Y-118920000I0J3000000D01*
G01*
X83820000Y-83920000D02*
X83820000Y-118920000D01*
X191820000Y-78920000D02*
G75*
G03*
X193820000Y-76920000I0J2000000D01*
G01*
X193820000Y-83920000D02*
G75*
G03*
X190820000Y-80920000I-3000000J0D01*
G01*
X86820000Y-121920000D02*
X190820000Y-121920000D01*
X139820000Y-78920000D02*
G75*
G03*
X139820000Y-80920000I0J-1000000D01*
G01*
X83820000Y-118920000D02*
G75*
G03*
X86820000Y-121920000I3000000J0D01*
G01*
X179820000Y-80920000D02*
X190820000Y-80920000D01*
X193820000Y-40920000D02*
X193820000Y-76920000D01*
X135820000Y-80920000D02*
G75*
G03*
X135820000Y-78920000I0J1000000D01*
G01*
X139820000Y-78920000D02*
X175820000Y-78920000D01*
X193820000Y-118920000D02*
X193820000Y-83920000D01*
X175820000Y-80920000D02*
X139820000Y-80920000D01*
X86820000Y-80920000D02*
X94820000Y-80920000D01*
X191820000Y-78920000D02*
X179820000Y-78920000D01*
X193820000Y-40920000D02*
G75*
G03*
X191820000Y-38920000I-2000000J0D01*
G01*
X175820000Y-80920000D02*
G75*
G03*
X175820000Y-78920000I0J1000000D01*
G01*
X85820000Y-38920000D02*
X191820000Y-38920000D01*
X83820000Y-76920000D02*
G75*
G03*
X85820000Y-78920000I2000000J0D01*
G01*
X98820000Y-78920000D02*
G75*
G03*
X98820000Y-80920000I0J-1000000D01*
G01*
X83820000Y-76920000D02*
X83820000Y-40920000D01*
X85820000Y-78920000D02*
X94820000Y-78920000D01*
M02*
