M48
; DRILL file {KiCad (5.1.10)-1} date 01/05/22 23:07:15
; FORMAT={2:4/ absolute / inch / suppress leading zeros}
; #@! TF.CreationDate,2022-01-05T23:07:15-06:00
; #@! TF.GenerationSoftware,Kicad,Pcbnew,(5.1.10)-1
; #@! TF.FileFunction,Plated,1,2,PTH
FMAT,2
INCH,TZ
T1C0.0197
T2C0.0236
T3C0.0315
T4C0.0374
T5C0.0394
T6C0.0433
T7C0.0512
T8C0.0591
T9C0.1260
%
G90
G05
T1
X40197Y-27953
X40197Y-43701
X40474Y-27285
X40474Y-28621
X40474Y-43033
X40474Y-44369
X41142Y-27008
X41142Y-28898
X41142Y-42756
X41142Y-44646
X41810Y-27285
X41810Y-28621
X41810Y-43033
X41810Y-44369
X42087Y-27953
X42087Y-43701
X75630Y-27953
X75630Y-43701
X75907Y-27285
X75907Y-28621
X75907Y-43033
X75907Y-44369
X76575Y-27008
X76575Y-28898
X76575Y-42756
X76575Y-44646
X77243Y-27285
X77243Y-28621
X77243Y-43033
X77243Y-44369
X77520Y-27953
X77520Y-43701
T2
X40657Y-36327
X43760Y-33327
X45177Y-31496
X50000Y-40354
X53150Y-33661
X57087Y-31004
X61331Y-33476
X67323Y-32165
X67913Y-31693
X68602Y-38976
X68996Y-38386
X69587Y-32776
X70866Y-39075
X71161Y-27165
T3
X54331Y-34327
X54331Y-37327
X55331Y-34327
X55331Y-37327
X56331Y-34327
X56331Y-37327
X57331Y-34327
X57331Y-37327
X58331Y-34327
X58331Y-37327
X59331Y-34327
X59331Y-37327
X60331Y-34327
X60331Y-37327
X61331Y-34327
X61331Y-37327
X62331Y-34327
X62331Y-37327
X63331Y-34327
X63331Y-37327
X64331Y-34327
X64331Y-37327
X65331Y-34327
X65331Y-37327
X66331Y-34327
X66331Y-37327
X67331Y-34327
X67331Y-37327
T4
X44882Y-28346
X45866Y-28346
X46850Y-28346
X47835Y-28346
T5
X41535Y-33327
X41535Y-34327
X41535Y-35327
X41535Y-36327
X41535Y-37327
X41535Y-38327
X46063Y-34843
X46063Y-36811
X51772Y-34843
X51772Y-35827
X51772Y-36811
T6
X47682Y-41732
X47682Y-43504
X50241Y-41732
X50241Y-43504
X70866Y-29134
X70866Y-31693
X70866Y-40354
X70866Y-42913
X72638Y-29134
X72638Y-31693
X72638Y-40354
X72638Y-42913
T7
X55087Y-28346
X57087Y-28346
X59417Y-28346
X61417Y-28346
X63748Y-28346
X65748Y-28346
T8
X61850Y-39764
X63780Y-39764
T9
X41142Y-27953
X41142Y-43701
X76575Y-27953
X76575Y-43701
T8
G00X49075Y-33622
M15
G01X48563Y-33622
M16
G05
G00X49075Y-38031
M15
G01X48563Y-38031
M16
G05
T0
M30
