%TF.GenerationSoftware,KiCad,Pcbnew,(5.1.10)-1*%
%TF.CreationDate,2022-01-05T23:07:18-06:00*%
%TF.ProjectId,HotPlate_TempControl,486f7450-6c61-4746-955f-54656d70436f,rev?*%
%TF.SameCoordinates,Original*%
%TF.FileFunction,Legend,Bot*%
%TF.FilePolarity,Positive*%
%FSLAX46Y46*%
G04 Gerber Fmt 4.6, Leading zero omitted, Abs format (unit mm)*
G04 Created by KiCad (PCBNEW (5.1.10)-1) date 2022-01-05 23:07:18*
%MOMM*%
%LPD*%
G01*
G04 APERTURE LIST*
%ADD10C,0.120000*%
%ADD11C,0.150000*%
G04 APERTURE END LIST*
D10*
%TO.C,SW4*%
X181500000Y-102250000D02*
X183000000Y-102250000D01*
X185500000Y-103500000D02*
X185500000Y-108000000D01*
X183000000Y-109250000D02*
X181500000Y-109250000D01*
X179000000Y-108000000D02*
X179000000Y-103500000D01*
%TO.C,SW3*%
X179000000Y-79500000D02*
X179000000Y-75000000D01*
X183000000Y-80750000D02*
X181500000Y-80750000D01*
X185500000Y-75000000D02*
X185500000Y-79500000D01*
X181500000Y-73750000D02*
X183000000Y-73750000D01*
%TO.C,SW2*%
X127000000Y-91000000D02*
G75*
G03*
X127000000Y-91000000I-3000000J0D01*
G01*
X122000000Y-85100000D02*
X117900000Y-85100000D01*
X117900000Y-96900000D02*
X122000000Y-96900000D01*
X126000000Y-96900000D02*
X130100000Y-96900000D01*
X126000000Y-85100000D02*
X130100000Y-85100000D01*
X130100000Y-85100000D02*
X130100000Y-96900000D01*
X131500000Y-87200000D02*
X131800000Y-86900000D01*
X131800000Y-86900000D02*
X131200000Y-86900000D01*
X131200000Y-86900000D02*
X131500000Y-87200000D01*
X117900000Y-85100000D02*
X117900000Y-87500000D01*
X117900000Y-89700000D02*
X117900000Y-92300000D01*
X117900000Y-94500000D02*
X117900000Y-96900000D01*
X124000000Y-90500000D02*
X124000000Y-91500000D01*
X124500000Y-91000000D02*
X123500000Y-91000000D01*
%TO.C,SW4*%
D11*
X186904761Y-104416666D02*
X186952380Y-104559523D01*
X186952380Y-104797619D01*
X186904761Y-104892857D01*
X186857142Y-104940476D01*
X186761904Y-104988095D01*
X186666666Y-104988095D01*
X186571428Y-104940476D01*
X186523809Y-104892857D01*
X186476190Y-104797619D01*
X186428571Y-104607142D01*
X186380952Y-104511904D01*
X186333333Y-104464285D01*
X186238095Y-104416666D01*
X186142857Y-104416666D01*
X186047619Y-104464285D01*
X186000000Y-104511904D01*
X185952380Y-104607142D01*
X185952380Y-104845238D01*
X186000000Y-104988095D01*
X185952380Y-105321428D02*
X186952380Y-105559523D01*
X186238095Y-105750000D01*
X186952380Y-105940476D01*
X185952380Y-106178571D01*
X186285714Y-106988095D02*
X186952380Y-106988095D01*
X185904761Y-106750000D02*
X186619047Y-106511904D01*
X186619047Y-107130952D01*
%TO.C,SW3*%
X186904761Y-75916666D02*
X186952380Y-76059523D01*
X186952380Y-76297619D01*
X186904761Y-76392857D01*
X186857142Y-76440476D01*
X186761904Y-76488095D01*
X186666666Y-76488095D01*
X186571428Y-76440476D01*
X186523809Y-76392857D01*
X186476190Y-76297619D01*
X186428571Y-76107142D01*
X186380952Y-76011904D01*
X186333333Y-75964285D01*
X186238095Y-75916666D01*
X186142857Y-75916666D01*
X186047619Y-75964285D01*
X186000000Y-76011904D01*
X185952380Y-76107142D01*
X185952380Y-76345238D01*
X186000000Y-76488095D01*
X185952380Y-76821428D02*
X186952380Y-77059523D01*
X186238095Y-77250000D01*
X186952380Y-77440476D01*
X185952380Y-77678571D01*
X185952380Y-77964285D02*
X185952380Y-78583333D01*
X186333333Y-78250000D01*
X186333333Y-78392857D01*
X186380952Y-78488095D01*
X186428571Y-78535714D01*
X186523809Y-78583333D01*
X186761904Y-78583333D01*
X186857142Y-78535714D01*
X186904761Y-78488095D01*
X186952380Y-78392857D01*
X186952380Y-78107142D01*
X186904761Y-78011904D01*
X186857142Y-77964285D01*
%TO.C,SW2*%
X119833333Y-99904761D02*
X119690476Y-99952380D01*
X119452380Y-99952380D01*
X119357142Y-99904761D01*
X119309523Y-99857142D01*
X119261904Y-99761904D01*
X119261904Y-99666666D01*
X119309523Y-99571428D01*
X119357142Y-99523809D01*
X119452380Y-99476190D01*
X119642857Y-99428571D01*
X119738095Y-99380952D01*
X119785714Y-99333333D01*
X119833333Y-99238095D01*
X119833333Y-99142857D01*
X119785714Y-99047619D01*
X119738095Y-99000000D01*
X119642857Y-98952380D01*
X119404761Y-98952380D01*
X119261904Y-99000000D01*
X118928571Y-98952380D02*
X118690476Y-99952380D01*
X118500000Y-99238095D01*
X118309523Y-99952380D01*
X118071428Y-98952380D01*
X117738095Y-99047619D02*
X117690476Y-99000000D01*
X117595238Y-98952380D01*
X117357142Y-98952380D01*
X117261904Y-99000000D01*
X117214285Y-99047619D01*
X117166666Y-99142857D01*
X117166666Y-99238095D01*
X117214285Y-99380952D01*
X117785714Y-99952380D01*
X117166666Y-99952380D01*
%TD*%
M02*
