%TF.GenerationSoftware,KiCad,Pcbnew,(5.1.10)-1*%
%TF.CreationDate,2022-01-05T23:07:18-06:00*%
%TF.ProjectId,HotPlate_TempControl,486f7450-6c61-4746-955f-54656d70436f,rev?*%
%TF.SameCoordinates,Original*%
%TF.FileFunction,Soldermask,Bot*%
%TF.FilePolarity,Negative*%
%FSLAX46Y46*%
G04 Gerber Fmt 4.6, Leading zero omitted, Abs format (unit mm)*
G04 Created by KiCad (PCBNEW (5.1.10)-1) date 2022-01-05 23:07:18*
%MOMM*%
%LPD*%
G01*
G04 APERTURE LIST*
%ADD10C,2.300000*%
%ADD11O,3.000000X2.000000*%
%ADD12O,2.000000X3.000000*%
%ADD13R,2.500000X1.700000*%
%ADD14O,2.500000X1.700000*%
%ADD15O,1.600000X2.500000*%
%ADD16O,1.700000X1.950000*%
%ADD17C,0.800000*%
%ADD18C,6.400000*%
%ADD19R,2.600000X2.600000*%
%ADD20C,2.600000*%
%ADD21C,2.000000*%
%ADD22R,3.200000X2.000000*%
%ADD23R,2.000000X2.000000*%
G04 APERTURE END LIST*
D10*
%TO.C,Y1*%
X162000000Y-101000000D03*
X157100000Y-101000000D03*
%TD*%
D11*
%TO.C,SW1*%
X127612500Y-106000000D03*
X127612500Y-110500000D03*
X121112500Y-106000000D03*
X121112500Y-110500000D03*
%TD*%
D12*
%TO.C,SW4*%
X180000000Y-109000000D03*
X184500000Y-109000000D03*
X180000000Y-102500000D03*
X184500000Y-102500000D03*
%TD*%
D13*
%TO.C,J5*%
X105500000Y-84650000D03*
D14*
X105500000Y-87190000D03*
X105500000Y-89730000D03*
X105500000Y-92270000D03*
X105500000Y-94810000D03*
X105500000Y-97350000D03*
%TD*%
D12*
%TO.C,SW3*%
X184500000Y-74000000D03*
X180000000Y-74000000D03*
X184500000Y-80500000D03*
X180000000Y-80500000D03*
%TD*%
%TO.C,U1*%
G36*
G01*
X138600000Y-96060000D02*
X137400000Y-96060000D01*
G75*
G02*
X137200000Y-95860000I0J200000D01*
G01*
X137200000Y-93760000D01*
G75*
G02*
X137400000Y-93560000I200000J0D01*
G01*
X138600000Y-93560000D01*
G75*
G02*
X138800000Y-93760000I0J-200000D01*
G01*
X138800000Y-95860000D01*
G75*
G02*
X138600000Y-96060000I-200000J0D01*
G01*
G37*
D15*
X171020000Y-87190000D03*
X140540000Y-94810000D03*
X168480000Y-87190000D03*
X143080000Y-94810000D03*
X165940000Y-87190000D03*
X145620000Y-94810000D03*
X163400000Y-87190000D03*
X148160000Y-94810000D03*
X160860000Y-87190000D03*
X150700000Y-94810000D03*
X158320000Y-87190000D03*
X153240000Y-94810000D03*
X155780000Y-87190000D03*
X155780000Y-94810000D03*
X153240000Y-87190000D03*
X158320000Y-94810000D03*
X150700000Y-87190000D03*
X160860000Y-94810000D03*
X148160000Y-87190000D03*
X163400000Y-94810000D03*
X145620000Y-87190000D03*
X165940000Y-94810000D03*
X143080000Y-87190000D03*
X168480000Y-94810000D03*
X140540000Y-87190000D03*
X171020000Y-94810000D03*
X138000000Y-87190000D03*
%TD*%
D16*
%TO.C,J2*%
X114000000Y-72000000D03*
X116500000Y-72000000D03*
X119000000Y-72000000D03*
G36*
G01*
X122350000Y-71275000D02*
X122350000Y-72725000D01*
G75*
G02*
X122100000Y-72975000I-250000J0D01*
G01*
X120900000Y-72975000D01*
G75*
G02*
X120650000Y-72725000I0J250000D01*
G01*
X120650000Y-71275000D01*
G75*
G02*
X120900000Y-71025000I250000J0D01*
G01*
X122100000Y-71025000D01*
G75*
G02*
X122350000Y-71275000I0J-250000D01*
G01*
G37*
%TD*%
D17*
%TO.C,H4*%
X106197056Y-69302944D03*
X104500000Y-68600000D03*
X102802944Y-69302944D03*
X102100000Y-71000000D03*
X102802944Y-72697056D03*
X104500000Y-73400000D03*
X106197056Y-72697056D03*
X106900000Y-71000000D03*
D18*
X104500000Y-71000000D03*
%TD*%
D17*
%TO.C,H3*%
X196197056Y-69302944D03*
X194500000Y-68600000D03*
X192802944Y-69302944D03*
X192100000Y-71000000D03*
X192802944Y-72697056D03*
X194500000Y-73400000D03*
X196197056Y-72697056D03*
X196900000Y-71000000D03*
D18*
X194500000Y-71000000D03*
%TD*%
D17*
%TO.C,H2*%
X196197056Y-109302944D03*
X194500000Y-108600000D03*
X192802944Y-109302944D03*
X192100000Y-111000000D03*
X192802944Y-112697056D03*
X194500000Y-113400000D03*
X196197056Y-112697056D03*
X196900000Y-111000000D03*
D18*
X194500000Y-111000000D03*
%TD*%
D17*
%TO.C,H1*%
X106197056Y-109302944D03*
X104500000Y-108600000D03*
X102802944Y-109302944D03*
X102100000Y-111000000D03*
X102802944Y-112697056D03*
X104500000Y-113400000D03*
X106197056Y-112697056D03*
X106900000Y-111000000D03*
D18*
X104500000Y-111000000D03*
%TD*%
D19*
%TO.C,J1*%
X156000000Y-72000000D03*
D20*
X150920000Y-72000000D03*
%TD*%
%TO.C,J3*%
X139920000Y-72000000D03*
D19*
X145000000Y-72000000D03*
%TD*%
%TO.C,J4*%
X167000000Y-72000000D03*
D20*
X161920000Y-72000000D03*
%TD*%
D21*
%TO.C,SW2*%
X117000000Y-93500000D03*
X117000000Y-88500000D03*
D22*
X124000000Y-96600000D03*
X124000000Y-85400000D03*
D21*
X131500000Y-93500000D03*
X131500000Y-91000000D03*
D23*
X131500000Y-88500000D03*
%TD*%
M02*
