%TF.GenerationSoftware,KiCad,Pcbnew,(5.1.10)-1*%
%TF.CreationDate,2022-01-05T23:07:18-06:00*%
%TF.ProjectId,HotPlate_TempControl,486f7450-6c61-4746-955f-54656d70436f,rev?*%
%TF.SameCoordinates,Original*%
%TF.FileFunction,Paste,Top*%
%TF.FilePolarity,Positive*%
%FSLAX46Y46*%
G04 Gerber Fmt 4.6, Leading zero omitted, Abs format (unit mm)*
G04 Created by KiCad (PCBNEW (5.1.10)-1) date 2022-01-05 23:07:18*
%MOMM*%
%LPD*%
G01*
G04 APERTURE LIST*
G04 APERTURE END LIST*
%TO.C,C1*%
G36*
G01*
X161762500Y-105462500D02*
X162237500Y-105462500D01*
G75*
G02*
X162475000Y-105700000I0J-237500D01*
G01*
X162475000Y-106300000D01*
G75*
G02*
X162237500Y-106537500I-237500J0D01*
G01*
X161762500Y-106537500D01*
G75*
G02*
X161525000Y-106300000I0J237500D01*
G01*
X161525000Y-105700000D01*
G75*
G02*
X161762500Y-105462500I237500J0D01*
G01*
G37*
G36*
G01*
X161762500Y-107187500D02*
X162237500Y-107187500D01*
G75*
G02*
X162475000Y-107425000I0J-237500D01*
G01*
X162475000Y-108025000D01*
G75*
G02*
X162237500Y-108262500I-237500J0D01*
G01*
X161762500Y-108262500D01*
G75*
G02*
X161525000Y-108025000I0J237500D01*
G01*
X161525000Y-107425000D01*
G75*
G02*
X161762500Y-107187500I237500J0D01*
G01*
G37*
%TD*%
%TO.C,C2*%
G36*
G01*
X156887500Y-107187500D02*
X157362500Y-107187500D01*
G75*
G02*
X157600000Y-107425000I0J-237500D01*
G01*
X157600000Y-108025000D01*
G75*
G02*
X157362500Y-108262500I-237500J0D01*
G01*
X156887500Y-108262500D01*
G75*
G02*
X156650000Y-108025000I0J237500D01*
G01*
X156650000Y-107425000D01*
G75*
G02*
X156887500Y-107187500I237500J0D01*
G01*
G37*
G36*
G01*
X156887500Y-105462500D02*
X157362500Y-105462500D01*
G75*
G02*
X157600000Y-105700000I0J-237500D01*
G01*
X157600000Y-106300000D01*
G75*
G02*
X157362500Y-106537500I-237500J0D01*
G01*
X156887500Y-106537500D01*
G75*
G02*
X156650000Y-106300000I0J237500D01*
G01*
X156650000Y-105700000D01*
G75*
G02*
X156887500Y-105462500I237500J0D01*
G01*
G37*
%TD*%
%TO.C,C3*%
G36*
G01*
X168737500Y-83537500D02*
X168262500Y-83537500D01*
G75*
G02*
X168025000Y-83300000I0J237500D01*
G01*
X168025000Y-82700000D01*
G75*
G02*
X168262500Y-82462500I237500J0D01*
G01*
X168737500Y-82462500D01*
G75*
G02*
X168975000Y-82700000I0J-237500D01*
G01*
X168975000Y-83300000D01*
G75*
G02*
X168737500Y-83537500I-237500J0D01*
G01*
G37*
G36*
G01*
X168737500Y-81812500D02*
X168262500Y-81812500D01*
G75*
G02*
X168025000Y-81575000I0J237500D01*
G01*
X168025000Y-80975000D01*
G75*
G02*
X168262500Y-80737500I237500J0D01*
G01*
X168737500Y-80737500D01*
G75*
G02*
X168975000Y-80975000I0J-237500D01*
G01*
X168975000Y-81575000D01*
G75*
G02*
X168737500Y-81812500I-237500J0D01*
G01*
G37*
%TD*%
%TO.C,C4*%
G36*
G01*
X165362500Y-81812500D02*
X164887500Y-81812500D01*
G75*
G02*
X164650000Y-81575000I0J237500D01*
G01*
X164650000Y-80975000D01*
G75*
G02*
X164887500Y-80737500I237500J0D01*
G01*
X165362500Y-80737500D01*
G75*
G02*
X165600000Y-80975000I0J-237500D01*
G01*
X165600000Y-81575000D01*
G75*
G02*
X165362500Y-81812500I-237500J0D01*
G01*
G37*
G36*
G01*
X165362500Y-83537500D02*
X164887500Y-83537500D01*
G75*
G02*
X164650000Y-83300000I0J237500D01*
G01*
X164650000Y-82700000D01*
G75*
G02*
X164887500Y-82462500I237500J0D01*
G01*
X165362500Y-82462500D01*
G75*
G02*
X165600000Y-82700000I0J-237500D01*
G01*
X165600000Y-83300000D01*
G75*
G02*
X165362500Y-83537500I-237500J0D01*
G01*
G37*
%TD*%
%TO.C,C5*%
G36*
G01*
X161987500Y-83537500D02*
X161512500Y-83537500D01*
G75*
G02*
X161275000Y-83300000I0J237500D01*
G01*
X161275000Y-82700000D01*
G75*
G02*
X161512500Y-82462500I237500J0D01*
G01*
X161987500Y-82462500D01*
G75*
G02*
X162225000Y-82700000I0J-237500D01*
G01*
X162225000Y-83300000D01*
G75*
G02*
X161987500Y-83537500I-237500J0D01*
G01*
G37*
G36*
G01*
X161987500Y-81812500D02*
X161512500Y-81812500D01*
G75*
G02*
X161275000Y-81575000I0J237500D01*
G01*
X161275000Y-80975000D01*
G75*
G02*
X161512500Y-80737500I237500J0D01*
G01*
X161987500Y-80737500D01*
G75*
G02*
X162225000Y-80975000I0J-237500D01*
G01*
X162225000Y-81575000D01*
G75*
G02*
X161987500Y-81812500I-237500J0D01*
G01*
G37*
%TD*%
%TO.C,C6*%
G36*
G01*
X158612500Y-81812500D02*
X158137500Y-81812500D01*
G75*
G02*
X157900000Y-81575000I0J237500D01*
G01*
X157900000Y-80975000D01*
G75*
G02*
X158137500Y-80737500I237500J0D01*
G01*
X158612500Y-80737500D01*
G75*
G02*
X158850000Y-80975000I0J-237500D01*
G01*
X158850000Y-81575000D01*
G75*
G02*
X158612500Y-81812500I-237500J0D01*
G01*
G37*
G36*
G01*
X158612500Y-83537500D02*
X158137500Y-83537500D01*
G75*
G02*
X157900000Y-83300000I0J237500D01*
G01*
X157900000Y-82700000D01*
G75*
G02*
X158137500Y-82462500I237500J0D01*
G01*
X158612500Y-82462500D01*
G75*
G02*
X158850000Y-82700000I0J-237500D01*
G01*
X158850000Y-83300000D01*
G75*
G02*
X158612500Y-83537500I-237500J0D01*
G01*
G37*
%TD*%
%TO.C,C7*%
G36*
G01*
X155237500Y-83537500D02*
X154762500Y-83537500D01*
G75*
G02*
X154525000Y-83300000I0J237500D01*
G01*
X154525000Y-82700000D01*
G75*
G02*
X154762500Y-82462500I237500J0D01*
G01*
X155237500Y-82462500D01*
G75*
G02*
X155475000Y-82700000I0J-237500D01*
G01*
X155475000Y-83300000D01*
G75*
G02*
X155237500Y-83537500I-237500J0D01*
G01*
G37*
G36*
G01*
X155237500Y-81812500D02*
X154762500Y-81812500D01*
G75*
G02*
X154525000Y-81575000I0J237500D01*
G01*
X154525000Y-80975000D01*
G75*
G02*
X154762500Y-80737500I237500J0D01*
G01*
X155237500Y-80737500D01*
G75*
G02*
X155475000Y-80975000I0J-237500D01*
G01*
X155475000Y-81575000D01*
G75*
G02*
X155237500Y-81812500I-237500J0D01*
G01*
G37*
%TD*%
%TO.C,R1*%
G36*
G01*
X124037500Y-102262500D02*
X124037500Y-102737500D01*
G75*
G02*
X123800000Y-102975000I-237500J0D01*
G01*
X123200000Y-102975000D01*
G75*
G02*
X122962500Y-102737500I0J237500D01*
G01*
X122962500Y-102262500D01*
G75*
G02*
X123200000Y-102025000I237500J0D01*
G01*
X123800000Y-102025000D01*
G75*
G02*
X124037500Y-102262500I0J-237500D01*
G01*
G37*
G36*
G01*
X125762500Y-102262500D02*
X125762500Y-102737500D01*
G75*
G02*
X125525000Y-102975000I-237500J0D01*
G01*
X124925000Y-102975000D01*
G75*
G02*
X124687500Y-102737500I0J237500D01*
G01*
X124687500Y-102262500D01*
G75*
G02*
X124925000Y-102025000I237500J0D01*
G01*
X125525000Y-102025000D01*
G75*
G02*
X125762500Y-102262500I0J-237500D01*
G01*
G37*
%TD*%
%TO.C,R2*%
G36*
G01*
X121762500Y-91325000D02*
X122237500Y-91325000D01*
G75*
G02*
X122475000Y-91562500I0J-237500D01*
G01*
X122475000Y-92162500D01*
G75*
G02*
X122237500Y-92400000I-237500J0D01*
G01*
X121762500Y-92400000D01*
G75*
G02*
X121525000Y-92162500I0J237500D01*
G01*
X121525000Y-91562500D01*
G75*
G02*
X121762500Y-91325000I237500J0D01*
G01*
G37*
G36*
G01*
X121762500Y-89600000D02*
X122237500Y-89600000D01*
G75*
G02*
X122475000Y-89837500I0J-237500D01*
G01*
X122475000Y-90437500D01*
G75*
G02*
X122237500Y-90675000I-237500J0D01*
G01*
X121762500Y-90675000D01*
G75*
G02*
X121525000Y-90437500I0J237500D01*
G01*
X121525000Y-89837500D01*
G75*
G02*
X121762500Y-89600000I237500J0D01*
G01*
G37*
%TD*%
%TO.C,R3*%
G36*
G01*
X126237500Y-92400000D02*
X125762500Y-92400000D01*
G75*
G02*
X125525000Y-92162500I0J237500D01*
G01*
X125525000Y-91562500D01*
G75*
G02*
X125762500Y-91325000I237500J0D01*
G01*
X126237500Y-91325000D01*
G75*
G02*
X126475000Y-91562500I0J-237500D01*
G01*
X126475000Y-92162500D01*
G75*
G02*
X126237500Y-92400000I-237500J0D01*
G01*
G37*
G36*
G01*
X126237500Y-90675000D02*
X125762500Y-90675000D01*
G75*
G02*
X125525000Y-90437500I0J237500D01*
G01*
X125525000Y-89837500D01*
G75*
G02*
X125762500Y-89600000I237500J0D01*
G01*
X126237500Y-89600000D01*
G75*
G02*
X126475000Y-89837500I0J-237500D01*
G01*
X126475000Y-90437500D01*
G75*
G02*
X126237500Y-90675000I-237500J0D01*
G01*
G37*
%TD*%
%TO.C,U2*%
G36*
G01*
X183255000Y-92700000D02*
X183555000Y-92700000D01*
G75*
G02*
X183705000Y-92850000I0J-150000D01*
G01*
X183705000Y-94300000D01*
G75*
G02*
X183555000Y-94450000I-150000J0D01*
G01*
X183255000Y-94450000D01*
G75*
G02*
X183105000Y-94300000I0J150000D01*
G01*
X183105000Y-92850000D01*
G75*
G02*
X183255000Y-92700000I150000J0D01*
G01*
G37*
G36*
G01*
X181985000Y-92700000D02*
X182285000Y-92700000D01*
G75*
G02*
X182435000Y-92850000I0J-150000D01*
G01*
X182435000Y-94300000D01*
G75*
G02*
X182285000Y-94450000I-150000J0D01*
G01*
X181985000Y-94450000D01*
G75*
G02*
X181835000Y-94300000I0J150000D01*
G01*
X181835000Y-92850000D01*
G75*
G02*
X181985000Y-92700000I150000J0D01*
G01*
G37*
G36*
G01*
X180715000Y-92700000D02*
X181015000Y-92700000D01*
G75*
G02*
X181165000Y-92850000I0J-150000D01*
G01*
X181165000Y-94300000D01*
G75*
G02*
X181015000Y-94450000I-150000J0D01*
G01*
X180715000Y-94450000D01*
G75*
G02*
X180565000Y-94300000I0J150000D01*
G01*
X180565000Y-92850000D01*
G75*
G02*
X180715000Y-92700000I150000J0D01*
G01*
G37*
G36*
G01*
X179445000Y-92700000D02*
X179745000Y-92700000D01*
G75*
G02*
X179895000Y-92850000I0J-150000D01*
G01*
X179895000Y-94300000D01*
G75*
G02*
X179745000Y-94450000I-150000J0D01*
G01*
X179445000Y-94450000D01*
G75*
G02*
X179295000Y-94300000I0J150000D01*
G01*
X179295000Y-92850000D01*
G75*
G02*
X179445000Y-92700000I150000J0D01*
G01*
G37*
G36*
G01*
X179445000Y-87550000D02*
X179745000Y-87550000D01*
G75*
G02*
X179895000Y-87700000I0J-150000D01*
G01*
X179895000Y-89150000D01*
G75*
G02*
X179745000Y-89300000I-150000J0D01*
G01*
X179445000Y-89300000D01*
G75*
G02*
X179295000Y-89150000I0J150000D01*
G01*
X179295000Y-87700000D01*
G75*
G02*
X179445000Y-87550000I150000J0D01*
G01*
G37*
G36*
G01*
X180715000Y-87550000D02*
X181015000Y-87550000D01*
G75*
G02*
X181165000Y-87700000I0J-150000D01*
G01*
X181165000Y-89150000D01*
G75*
G02*
X181015000Y-89300000I-150000J0D01*
G01*
X180715000Y-89300000D01*
G75*
G02*
X180565000Y-89150000I0J150000D01*
G01*
X180565000Y-87700000D01*
G75*
G02*
X180715000Y-87550000I150000J0D01*
G01*
G37*
G36*
G01*
X181985000Y-87550000D02*
X182285000Y-87550000D01*
G75*
G02*
X182435000Y-87700000I0J-150000D01*
G01*
X182435000Y-89150000D01*
G75*
G02*
X182285000Y-89300000I-150000J0D01*
G01*
X181985000Y-89300000D01*
G75*
G02*
X181835000Y-89150000I0J150000D01*
G01*
X181835000Y-87700000D01*
G75*
G02*
X181985000Y-87550000I150000J0D01*
G01*
G37*
G36*
G01*
X183255000Y-87550000D02*
X183555000Y-87550000D01*
G75*
G02*
X183705000Y-87700000I0J-150000D01*
G01*
X183705000Y-89150000D01*
G75*
G02*
X183555000Y-89300000I-150000J0D01*
G01*
X183255000Y-89300000D01*
G75*
G02*
X183105000Y-89150000I0J150000D01*
G01*
X183105000Y-87700000D01*
G75*
G02*
X183255000Y-87550000I150000J0D01*
G01*
G37*
%TD*%
M02*
