%TF.GenerationSoftware,KiCad,Pcbnew,(5.1.10)-1*%
%TF.CreationDate,2022-01-05T23:07:18-06:00*%
%TF.ProjectId,HotPlate_TempControl,486f7450-6c61-4746-955f-54656d70436f,rev?*%
%TF.SameCoordinates,Original*%
%TF.FileFunction,Legend,Top*%
%TF.FilePolarity,Positive*%
%FSLAX46Y46*%
G04 Gerber Fmt 4.6, Leading zero omitted, Abs format (unit mm)*
G04 Created by KiCad (PCBNEW (5.1.10)-1) date 2022-01-05 23:07:18*
%MOMM*%
%LPD*%
G01*
G04 APERTURE LIST*
%ADD10C,0.120000*%
%ADD11C,0.150000*%
G04 APERTURE END LIST*
D10*
%TO.C,Y1*%
X162750000Y-98475000D02*
X156350000Y-98475000D01*
X162750000Y-103525000D02*
X156350000Y-103525000D01*
X162750000Y-98475000D02*
G75*
G02*
X162750000Y-103525000I0J-2525000D01*
G01*
X156350000Y-98475000D02*
G75*
G03*
X156350000Y-103525000I0J-2525000D01*
G01*
%TO.C,SW1*%
X120862500Y-107500000D02*
X120862500Y-109000000D01*
X122112500Y-111500000D02*
X126612500Y-111500000D01*
X127862500Y-109000000D02*
X127862500Y-107500000D01*
X126612500Y-105000000D02*
X122112500Y-105000000D01*
%TO.C,J5*%
X104170000Y-83320000D02*
X105500000Y-83320000D01*
X104170000Y-84650000D02*
X104170000Y-83320000D01*
X104170000Y-85920000D02*
X106830000Y-85920000D01*
X106830000Y-85920000D02*
X106830000Y-98680000D01*
X104170000Y-85920000D02*
X104170000Y-98680000D01*
X104170000Y-98680000D02*
X106830000Y-98680000D01*
%TO.C,U1*%
X136670000Y-88350000D02*
X136670000Y-90000000D01*
X172350000Y-88350000D02*
X136670000Y-88350000D01*
X172350000Y-93650000D02*
X172350000Y-88350000D01*
X136670000Y-93650000D02*
X172350000Y-93650000D01*
X136670000Y-92000000D02*
X136670000Y-93650000D01*
X136670000Y-90000000D02*
G75*
G02*
X136670000Y-92000000I0J-1000000D01*
G01*
%TO.C,J2*%
X124350000Y-74750000D02*
X124350000Y-73500000D01*
X123100000Y-74750000D02*
X124350000Y-74750000D01*
X112200000Y-69250000D02*
X117750000Y-69250000D01*
X112200000Y-72200000D02*
X112200000Y-69250000D01*
X111450000Y-72200000D02*
X112200000Y-72200000D01*
X123300000Y-69250000D02*
X117750000Y-69250000D01*
X123300000Y-72200000D02*
X123300000Y-69250000D01*
X124050000Y-72200000D02*
X123300000Y-72200000D01*
X111450000Y-74450000D02*
X113250000Y-74450000D01*
X111450000Y-73700000D02*
X111450000Y-74450000D01*
X113250000Y-73700000D02*
X111450000Y-73700000D01*
X113250000Y-74450000D02*
X113250000Y-73700000D01*
X122250000Y-74450000D02*
X124050000Y-74450000D01*
X122250000Y-73700000D02*
X122250000Y-74450000D01*
X124050000Y-73700000D02*
X122250000Y-73700000D01*
X124050000Y-74450000D02*
X124050000Y-73700000D01*
X114750000Y-74450000D02*
X120750000Y-74450000D01*
X114750000Y-73700000D02*
X114750000Y-74450000D01*
X120750000Y-73700000D02*
X114750000Y-73700000D01*
X120750000Y-74450000D02*
X120750000Y-73700000D01*
X111440000Y-74460000D02*
X124060000Y-74460000D01*
X111440000Y-68490000D02*
X111440000Y-74460000D01*
X124060000Y-68490000D02*
X111440000Y-68490000D01*
X124060000Y-74460000D02*
X124060000Y-68490000D01*
%TO.C,C1*%
X161490000Y-106716233D02*
X161490000Y-107008767D01*
X162510000Y-106716233D02*
X162510000Y-107008767D01*
%TO.C,C2*%
X157635000Y-106716233D02*
X157635000Y-107008767D01*
X156615000Y-106716233D02*
X156615000Y-107008767D01*
%TO.C,C3*%
X169010000Y-82283767D02*
X169010000Y-81991233D01*
X167990000Y-82283767D02*
X167990000Y-81991233D01*
%TO.C,C4*%
X164615000Y-82283767D02*
X164615000Y-81991233D01*
X165635000Y-82283767D02*
X165635000Y-81991233D01*
%TO.C,C5*%
X162260000Y-82283767D02*
X162260000Y-81991233D01*
X161240000Y-82283767D02*
X161240000Y-81991233D01*
%TO.C,C6*%
X157865000Y-82283767D02*
X157865000Y-81991233D01*
X158885000Y-82283767D02*
X158885000Y-81991233D01*
%TO.C,C7*%
X155510000Y-82283767D02*
X155510000Y-81991233D01*
X154490000Y-82283767D02*
X154490000Y-81991233D01*
%TO.C,J1*%
X158840000Y-67100000D02*
X158340000Y-67100000D01*
X158840000Y-67840000D02*
X158840000Y-67100000D01*
X152147000Y-70977000D02*
X152194000Y-70931000D01*
X149850000Y-73275000D02*
X149885000Y-73239000D01*
X151954000Y-70761000D02*
X151989000Y-70726000D01*
X149645000Y-73069000D02*
X149692000Y-73023000D01*
X148320000Y-77261000D02*
X148320000Y-67340000D01*
X158600000Y-77261000D02*
X158600000Y-67340000D01*
X158600000Y-67340000D02*
X148320000Y-67340000D01*
X158600000Y-77261000D02*
X148320000Y-77261000D01*
X158600000Y-74301000D02*
X148320000Y-74301000D01*
X158600000Y-69400000D02*
X148320000Y-69400000D01*
X158600000Y-67900000D02*
X148320000Y-67900000D01*
X152600000Y-72000000D02*
G75*
G03*
X152600000Y-72000000I-1680000J0D01*
G01*
X155316682Y-70465244D02*
G75*
G02*
X156000000Y-70320000I683318J-1534756D01*
G01*
X154464574Y-72683042D02*
G75*
G02*
X154465000Y-71316000I1535426J683042D01*
G01*
X156683042Y-73535426D02*
G75*
G02*
X155316000Y-73535000I-683042J1535426D01*
G01*
X157535426Y-71316958D02*
G75*
G02*
X157535000Y-72684000I-1535426J-683042D01*
G01*
X155971195Y-70319747D02*
G75*
G02*
X156684000Y-70465000I28805J-1680253D01*
G01*
%TO.C,J3*%
X141600000Y-72000000D02*
G75*
G03*
X141600000Y-72000000I-1680000J0D01*
G01*
X147600000Y-67900000D02*
X137320000Y-67900000D01*
X147600000Y-69400000D02*
X137320000Y-69400000D01*
X147600000Y-74301000D02*
X137320000Y-74301000D01*
X147600000Y-77261000D02*
X137320000Y-77261000D01*
X147600000Y-67340000D02*
X137320000Y-67340000D01*
X147600000Y-77261000D02*
X147600000Y-67340000D01*
X137320000Y-77261000D02*
X137320000Y-67340000D01*
X138645000Y-73069000D02*
X138692000Y-73023000D01*
X140954000Y-70761000D02*
X140989000Y-70726000D01*
X138850000Y-73275000D02*
X138885000Y-73239000D01*
X141147000Y-70977000D02*
X141194000Y-70931000D01*
X147840000Y-67840000D02*
X147840000Y-67100000D01*
X147840000Y-67100000D02*
X147340000Y-67100000D01*
X144971195Y-70319747D02*
G75*
G02*
X145684000Y-70465000I28805J-1680253D01*
G01*
X146535426Y-71316958D02*
G75*
G02*
X146535000Y-72684000I-1535426J-683042D01*
G01*
X145683042Y-73535426D02*
G75*
G02*
X144316000Y-73535000I-683042J1535426D01*
G01*
X143464574Y-72683042D02*
G75*
G02*
X143465000Y-71316000I1535426J683042D01*
G01*
X144316682Y-70465244D02*
G75*
G02*
X145000000Y-70320000I683318J-1534756D01*
G01*
%TO.C,J4*%
X169840000Y-67100000D02*
X169340000Y-67100000D01*
X169840000Y-67840000D02*
X169840000Y-67100000D01*
X163147000Y-70977000D02*
X163194000Y-70931000D01*
X160850000Y-73275000D02*
X160885000Y-73239000D01*
X162954000Y-70761000D02*
X162989000Y-70726000D01*
X160645000Y-73069000D02*
X160692000Y-73023000D01*
X159320000Y-77261000D02*
X159320000Y-67340000D01*
X169600000Y-77261000D02*
X169600000Y-67340000D01*
X169600000Y-67340000D02*
X159320000Y-67340000D01*
X169600000Y-77261000D02*
X159320000Y-77261000D01*
X169600000Y-74301000D02*
X159320000Y-74301000D01*
X169600000Y-69400000D02*
X159320000Y-69400000D01*
X169600000Y-67900000D02*
X159320000Y-67900000D01*
X163600000Y-72000000D02*
G75*
G03*
X163600000Y-72000000I-1680000J0D01*
G01*
X166316682Y-70465244D02*
G75*
G02*
X167000000Y-70320000I683318J-1534756D01*
G01*
X165464574Y-72683042D02*
G75*
G02*
X165465000Y-71316000I1535426J683042D01*
G01*
X167683042Y-73535426D02*
G75*
G02*
X166316000Y-73535000I-683042J1535426D01*
G01*
X168535426Y-71316958D02*
G75*
G02*
X168535000Y-72684000I-1535426J-683042D01*
G01*
X166971195Y-70319747D02*
G75*
G02*
X167684000Y-70465000I28805J-1680253D01*
G01*
%TO.C,R1*%
X124508767Y-103010000D02*
X124216233Y-103010000D01*
X124508767Y-101990000D02*
X124216233Y-101990000D01*
%TO.C,R2*%
X122510000Y-90853733D02*
X122510000Y-91146267D01*
X121490000Y-90853733D02*
X121490000Y-91146267D01*
%TO.C,R3*%
X126510000Y-91146267D02*
X126510000Y-90853733D01*
X125490000Y-91146267D02*
X125490000Y-90853733D01*
%TO.C,U2*%
X178940000Y-91000000D02*
X178940000Y-92950000D01*
X178940000Y-91000000D02*
X178940000Y-89050000D01*
X184060000Y-91000000D02*
X184060000Y-92950000D01*
X184060000Y-91000000D02*
X184060000Y-87550000D01*
%TO.C,Y1*%
D11*
X159073809Y-104501190D02*
X159073809Y-104977380D01*
X158740476Y-103977380D02*
X159073809Y-104501190D01*
X159407142Y-103977380D01*
X160264285Y-104977380D02*
X159692857Y-104977380D01*
X159978571Y-104977380D02*
X159978571Y-103977380D01*
X159883333Y-104120238D01*
X159788095Y-104215476D01*
X159692857Y-104263095D01*
%TO.C,SW1*%
X123029166Y-112904761D02*
X123172023Y-112952380D01*
X123410119Y-112952380D01*
X123505357Y-112904761D01*
X123552976Y-112857142D01*
X123600595Y-112761904D01*
X123600595Y-112666666D01*
X123552976Y-112571428D01*
X123505357Y-112523809D01*
X123410119Y-112476190D01*
X123219642Y-112428571D01*
X123124404Y-112380952D01*
X123076785Y-112333333D01*
X123029166Y-112238095D01*
X123029166Y-112142857D01*
X123076785Y-112047619D01*
X123124404Y-112000000D01*
X123219642Y-111952380D01*
X123457738Y-111952380D01*
X123600595Y-112000000D01*
X123933928Y-111952380D02*
X124172023Y-112952380D01*
X124362500Y-112238095D01*
X124552976Y-112952380D01*
X124791071Y-111952380D01*
X125695833Y-112952380D02*
X125124404Y-112952380D01*
X125410119Y-112952380D02*
X125410119Y-111952380D01*
X125314880Y-112095238D01*
X125219642Y-112190476D01*
X125124404Y-112238095D01*
%TO.C,J5*%
X105166666Y-81772380D02*
X105166666Y-82486666D01*
X105119047Y-82629523D01*
X105023809Y-82724761D01*
X104880952Y-82772380D01*
X104785714Y-82772380D01*
X106119047Y-81772380D02*
X105642857Y-81772380D01*
X105595238Y-82248571D01*
X105642857Y-82200952D01*
X105738095Y-82153333D01*
X105976190Y-82153333D01*
X106071428Y-82200952D01*
X106119047Y-82248571D01*
X106166666Y-82343809D01*
X106166666Y-82581904D01*
X106119047Y-82677142D01*
X106071428Y-82724761D01*
X105976190Y-82772380D01*
X105738095Y-82772380D01*
X105642857Y-82724761D01*
X105595238Y-82677142D01*
%TO.C,U1*%
X135122380Y-91761904D02*
X135931904Y-91761904D01*
X136027142Y-91714285D01*
X136074761Y-91666666D01*
X136122380Y-91571428D01*
X136122380Y-91380952D01*
X136074761Y-91285714D01*
X136027142Y-91238095D01*
X135931904Y-91190476D01*
X135122380Y-91190476D01*
X136122380Y-90190476D02*
X136122380Y-90761904D01*
X136122380Y-90476190D02*
X135122380Y-90476190D01*
X135265238Y-90571428D01*
X135360476Y-90666666D01*
X135408095Y-90761904D01*
%TO.C,J2*%
X117416666Y-75002380D02*
X117416666Y-75716666D01*
X117369047Y-75859523D01*
X117273809Y-75954761D01*
X117130952Y-76002380D01*
X117035714Y-76002380D01*
X117845238Y-75097619D02*
X117892857Y-75050000D01*
X117988095Y-75002380D01*
X118226190Y-75002380D01*
X118321428Y-75050000D01*
X118369047Y-75097619D01*
X118416666Y-75192857D01*
X118416666Y-75288095D01*
X118369047Y-75430952D01*
X117797619Y-76002380D01*
X118416666Y-76002380D01*
%TO.C,H4*%
X103738095Y-67252380D02*
X103738095Y-66252380D01*
X103738095Y-66728571D02*
X104309523Y-66728571D01*
X104309523Y-67252380D02*
X104309523Y-66252380D01*
X105214285Y-66585714D02*
X105214285Y-67252380D01*
X104976190Y-66204761D02*
X104738095Y-66919047D01*
X105357142Y-66919047D01*
%TO.C,H3*%
X193738095Y-67252380D02*
X193738095Y-66252380D01*
X193738095Y-66728571D02*
X194309523Y-66728571D01*
X194309523Y-67252380D02*
X194309523Y-66252380D01*
X194690476Y-66252380D02*
X195309523Y-66252380D01*
X194976190Y-66633333D01*
X195119047Y-66633333D01*
X195214285Y-66680952D01*
X195261904Y-66728571D01*
X195309523Y-66823809D01*
X195309523Y-67061904D01*
X195261904Y-67157142D01*
X195214285Y-67204761D01*
X195119047Y-67252380D01*
X194833333Y-67252380D01*
X194738095Y-67204761D01*
X194690476Y-67157142D01*
%TO.C,H2*%
X193738095Y-107252380D02*
X193738095Y-106252380D01*
X193738095Y-106728571D02*
X194309523Y-106728571D01*
X194309523Y-107252380D02*
X194309523Y-106252380D01*
X194738095Y-106347619D02*
X194785714Y-106300000D01*
X194880952Y-106252380D01*
X195119047Y-106252380D01*
X195214285Y-106300000D01*
X195261904Y-106347619D01*
X195309523Y-106442857D01*
X195309523Y-106538095D01*
X195261904Y-106680952D01*
X194690476Y-107252380D01*
X195309523Y-107252380D01*
%TO.C,H1*%
X103738095Y-107252380D02*
X103738095Y-106252380D01*
X103738095Y-106728571D02*
X104309523Y-106728571D01*
X104309523Y-107252380D02*
X104309523Y-106252380D01*
X105309523Y-107252380D02*
X104738095Y-107252380D01*
X105023809Y-107252380D02*
X105023809Y-106252380D01*
X104928571Y-106395238D01*
X104833333Y-106490476D01*
X104738095Y-106538095D01*
%TO.C,C1*%
X162357142Y-110166666D02*
X162404761Y-110214285D01*
X162452380Y-110357142D01*
X162452380Y-110452380D01*
X162404761Y-110595238D01*
X162309523Y-110690476D01*
X162214285Y-110738095D01*
X162023809Y-110785714D01*
X161880952Y-110785714D01*
X161690476Y-110738095D01*
X161595238Y-110690476D01*
X161500000Y-110595238D01*
X161452380Y-110452380D01*
X161452380Y-110357142D01*
X161500000Y-110214285D01*
X161547619Y-110166666D01*
X162452380Y-109214285D02*
X162452380Y-109785714D01*
X162452380Y-109500000D02*
X161452380Y-109500000D01*
X161595238Y-109595238D01*
X161690476Y-109690476D01*
X161738095Y-109785714D01*
%TO.C,C2*%
X157607142Y-110166666D02*
X157654761Y-110214285D01*
X157702380Y-110357142D01*
X157702380Y-110452380D01*
X157654761Y-110595238D01*
X157559523Y-110690476D01*
X157464285Y-110738095D01*
X157273809Y-110785714D01*
X157130952Y-110785714D01*
X156940476Y-110738095D01*
X156845238Y-110690476D01*
X156750000Y-110595238D01*
X156702380Y-110452380D01*
X156702380Y-110357142D01*
X156750000Y-110214285D01*
X156797619Y-110166666D01*
X156797619Y-109785714D02*
X156750000Y-109738095D01*
X156702380Y-109642857D01*
X156702380Y-109404761D01*
X156750000Y-109309523D01*
X156797619Y-109261904D01*
X156892857Y-109214285D01*
X156988095Y-109214285D01*
X157130952Y-109261904D01*
X157702380Y-109833333D01*
X157702380Y-109214285D01*
%TO.C,C3*%
X167427142Y-82304166D02*
X167474761Y-82351785D01*
X167522380Y-82494642D01*
X167522380Y-82589880D01*
X167474761Y-82732738D01*
X167379523Y-82827976D01*
X167284285Y-82875595D01*
X167093809Y-82923214D01*
X166950952Y-82923214D01*
X166760476Y-82875595D01*
X166665238Y-82827976D01*
X166570000Y-82732738D01*
X166522380Y-82589880D01*
X166522380Y-82494642D01*
X166570000Y-82351785D01*
X166617619Y-82304166D01*
X166522380Y-81970833D02*
X166522380Y-81351785D01*
X166903333Y-81685119D01*
X166903333Y-81542261D01*
X166950952Y-81447023D01*
X166998571Y-81399404D01*
X167093809Y-81351785D01*
X167331904Y-81351785D01*
X167427142Y-81399404D01*
X167474761Y-81447023D01*
X167522380Y-81542261D01*
X167522380Y-81827976D01*
X167474761Y-81923214D01*
X167427142Y-81970833D01*
%TO.C,C4*%
X164052142Y-82304166D02*
X164099761Y-82351785D01*
X164147380Y-82494642D01*
X164147380Y-82589880D01*
X164099761Y-82732738D01*
X164004523Y-82827976D01*
X163909285Y-82875595D01*
X163718809Y-82923214D01*
X163575952Y-82923214D01*
X163385476Y-82875595D01*
X163290238Y-82827976D01*
X163195000Y-82732738D01*
X163147380Y-82589880D01*
X163147380Y-82494642D01*
X163195000Y-82351785D01*
X163242619Y-82304166D01*
X163480714Y-81447023D02*
X164147380Y-81447023D01*
X163099761Y-81685119D02*
X163814047Y-81923214D01*
X163814047Y-81304166D01*
%TO.C,C5*%
X160677142Y-82304166D02*
X160724761Y-82351785D01*
X160772380Y-82494642D01*
X160772380Y-82589880D01*
X160724761Y-82732738D01*
X160629523Y-82827976D01*
X160534285Y-82875595D01*
X160343809Y-82923214D01*
X160200952Y-82923214D01*
X160010476Y-82875595D01*
X159915238Y-82827976D01*
X159820000Y-82732738D01*
X159772380Y-82589880D01*
X159772380Y-82494642D01*
X159820000Y-82351785D01*
X159867619Y-82304166D01*
X159772380Y-81399404D02*
X159772380Y-81875595D01*
X160248571Y-81923214D01*
X160200952Y-81875595D01*
X160153333Y-81780357D01*
X160153333Y-81542261D01*
X160200952Y-81447023D01*
X160248571Y-81399404D01*
X160343809Y-81351785D01*
X160581904Y-81351785D01*
X160677142Y-81399404D01*
X160724761Y-81447023D01*
X160772380Y-81542261D01*
X160772380Y-81780357D01*
X160724761Y-81875595D01*
X160677142Y-81923214D01*
%TO.C,C6*%
X157302142Y-82304166D02*
X157349761Y-82351785D01*
X157397380Y-82494642D01*
X157397380Y-82589880D01*
X157349761Y-82732738D01*
X157254523Y-82827976D01*
X157159285Y-82875595D01*
X156968809Y-82923214D01*
X156825952Y-82923214D01*
X156635476Y-82875595D01*
X156540238Y-82827976D01*
X156445000Y-82732738D01*
X156397380Y-82589880D01*
X156397380Y-82494642D01*
X156445000Y-82351785D01*
X156492619Y-82304166D01*
X156397380Y-81447023D02*
X156397380Y-81637500D01*
X156445000Y-81732738D01*
X156492619Y-81780357D01*
X156635476Y-81875595D01*
X156825952Y-81923214D01*
X157206904Y-81923214D01*
X157302142Y-81875595D01*
X157349761Y-81827976D01*
X157397380Y-81732738D01*
X157397380Y-81542261D01*
X157349761Y-81447023D01*
X157302142Y-81399404D01*
X157206904Y-81351785D01*
X156968809Y-81351785D01*
X156873571Y-81399404D01*
X156825952Y-81447023D01*
X156778333Y-81542261D01*
X156778333Y-81732738D01*
X156825952Y-81827976D01*
X156873571Y-81875595D01*
X156968809Y-81923214D01*
%TO.C,C7*%
X153927142Y-82304166D02*
X153974761Y-82351785D01*
X154022380Y-82494642D01*
X154022380Y-82589880D01*
X153974761Y-82732738D01*
X153879523Y-82827976D01*
X153784285Y-82875595D01*
X153593809Y-82923214D01*
X153450952Y-82923214D01*
X153260476Y-82875595D01*
X153165238Y-82827976D01*
X153070000Y-82732738D01*
X153022380Y-82589880D01*
X153022380Y-82494642D01*
X153070000Y-82351785D01*
X153117619Y-82304166D01*
X153022380Y-81970833D02*
X153022380Y-81304166D01*
X154022380Y-81732738D01*
%TO.C,J1*%
X153126666Y-77712380D02*
X153126666Y-78426666D01*
X153079047Y-78569523D01*
X152983809Y-78664761D01*
X152840952Y-78712380D01*
X152745714Y-78712380D01*
X154126666Y-78712380D02*
X153555238Y-78712380D01*
X153840952Y-78712380D02*
X153840952Y-77712380D01*
X153745714Y-77855238D01*
X153650476Y-77950476D01*
X153555238Y-77998095D01*
%TO.C,J3*%
X142126666Y-77712380D02*
X142126666Y-78426666D01*
X142079047Y-78569523D01*
X141983809Y-78664761D01*
X141840952Y-78712380D01*
X141745714Y-78712380D01*
X142507619Y-77712380D02*
X143126666Y-77712380D01*
X142793333Y-78093333D01*
X142936190Y-78093333D01*
X143031428Y-78140952D01*
X143079047Y-78188571D01*
X143126666Y-78283809D01*
X143126666Y-78521904D01*
X143079047Y-78617142D01*
X143031428Y-78664761D01*
X142936190Y-78712380D01*
X142650476Y-78712380D01*
X142555238Y-78664761D01*
X142507619Y-78617142D01*
%TO.C,J4*%
X164126666Y-77712380D02*
X164126666Y-78426666D01*
X164079047Y-78569523D01*
X163983809Y-78664761D01*
X163840952Y-78712380D01*
X163745714Y-78712380D01*
X165031428Y-78045714D02*
X165031428Y-78712380D01*
X164793333Y-77664761D02*
X164555238Y-78379047D01*
X165174285Y-78379047D01*
%TO.C,R1*%
X124195833Y-104382380D02*
X123862500Y-103906190D01*
X123624404Y-104382380D02*
X123624404Y-103382380D01*
X124005357Y-103382380D01*
X124100595Y-103430000D01*
X124148214Y-103477619D01*
X124195833Y-103572857D01*
X124195833Y-103715714D01*
X124148214Y-103810952D01*
X124100595Y-103858571D01*
X124005357Y-103906190D01*
X123624404Y-103906190D01*
X125148214Y-104382380D02*
X124576785Y-104382380D01*
X124862500Y-104382380D02*
X124862500Y-103382380D01*
X124767261Y-103525238D01*
X124672023Y-103620476D01*
X124576785Y-103668095D01*
%TO.C,R2*%
X122452380Y-94166666D02*
X121976190Y-94500000D01*
X122452380Y-94738095D02*
X121452380Y-94738095D01*
X121452380Y-94357142D01*
X121500000Y-94261904D01*
X121547619Y-94214285D01*
X121642857Y-94166666D01*
X121785714Y-94166666D01*
X121880952Y-94214285D01*
X121928571Y-94261904D01*
X121976190Y-94357142D01*
X121976190Y-94738095D01*
X121547619Y-93785714D02*
X121500000Y-93738095D01*
X121452380Y-93642857D01*
X121452380Y-93404761D01*
X121500000Y-93309523D01*
X121547619Y-93261904D01*
X121642857Y-93214285D01*
X121738095Y-93214285D01*
X121880952Y-93261904D01*
X122452380Y-93833333D01*
X122452380Y-93214285D01*
%TO.C,R3*%
X126452380Y-94166666D02*
X125976190Y-94500000D01*
X126452380Y-94738095D02*
X125452380Y-94738095D01*
X125452380Y-94357142D01*
X125500000Y-94261904D01*
X125547619Y-94214285D01*
X125642857Y-94166666D01*
X125785714Y-94166666D01*
X125880952Y-94214285D01*
X125928571Y-94261904D01*
X125976190Y-94357142D01*
X125976190Y-94738095D01*
X125452380Y-93833333D02*
X125452380Y-93214285D01*
X125833333Y-93547619D01*
X125833333Y-93404761D01*
X125880952Y-93309523D01*
X125928571Y-93261904D01*
X126023809Y-93214285D01*
X126261904Y-93214285D01*
X126357142Y-93261904D01*
X126404761Y-93309523D01*
X126452380Y-93404761D01*
X126452380Y-93690476D01*
X126404761Y-93785714D01*
X126357142Y-93833333D01*
%TO.C,U2*%
X184352380Y-91761904D02*
X185161904Y-91761904D01*
X185257142Y-91714285D01*
X185304761Y-91666666D01*
X185352380Y-91571428D01*
X185352380Y-91380952D01*
X185304761Y-91285714D01*
X185257142Y-91238095D01*
X185161904Y-91190476D01*
X184352380Y-91190476D01*
X184447619Y-90761904D02*
X184400000Y-90714285D01*
X184352380Y-90619047D01*
X184352380Y-90380952D01*
X184400000Y-90285714D01*
X184447619Y-90238095D01*
X184542857Y-90190476D01*
X184638095Y-90190476D01*
X184780952Y-90238095D01*
X185352380Y-90809523D01*
X185352380Y-90190476D01*
%TD*%
M02*
